<svg id="bf78fb65-7209-4b4d-8341-116469b40a1e" data-name="Objects" xmlns="http://www.w3.org/2000/svg" width="302.9" height="245.4" viewBox="0 0 302.9 245.4"><defs><style>.b5c816ba-2fe2-4d2c-909f-1480afb1967f{fill:#777;}</style></defs><path class="b5c816ba-2fe2-4d2c-909f-1480afb1967f" d="M1829.5,1510l1.7,1.5a9.8,9.8,0,0,1-2.6,15.9,7.1,7.1,0,0,1-6.9-.1,9.9,9.9,0,0,1-3.5-14.4c.6-.8,1.3-1.5,1.9-2.2-4.7-9.5-8-19.4-13.7-28.4-6.3.3-12,2.9-18.1,3.9s-11.7,2.2-17.6,3.1-12.3,1.6-18.4,2.3-11.9,1.4-17.8,2.1c-2.1,3.2-1.5,6.8-2.5,10-1.4,4.8-2,9.8-3.1,14.6-.5,1.8-.8,3.5.3,5.2,2.3,3.5.9,6.5-1.6,9.2s-6.1,2.9-9.4,1.3a8.1,8.1,0,0,1-4.9-7.6,6.5,6.5,0,0,1,2.2-5.3c1-.8,1.8-1.7,2.9-2.7-.1-7.8-.3-15.8-.5-24a40.4,40.4,0,0,0-4.1-1l-30.9-4.3a97.5,97.5,0,0,1-10.5-2.1c-5.5-1.3-10.3-4.2-15.1-6.9a4.4,4.4,0,0,1-1.5-1c-2.3-3.5-5.2-6.3-6.3-10.7a21.3,21.3,0,0,1,2-15.5c1.1-2.2,2.2-4.3,3.4-6.3,6.2-10.1,14.9-17.6,24.6-24.1,5.1-3.5,10.1-7.1,16-9.4,3.5-1.4,7-2.8,10.6-4s3.5-2.1,3.4-4.3c-.3-6.7,1.9-13,3.2-19.3.8-3.8,3.2-7.3,5.7-10.4l9.3-11a30.8,30.8,0,0,1,2.6-2.4,76.1,76.1,0,0,1,19.2-11.9c.9-.4,1.7-1,2.5-1.4l-3.1-12.4-3-12.2c-.7-2.3.8-5.1-1.1-6.9s-3.8-2.1-5.6-3.2c-5.4-3.2-7.6-9.9-6-14.4s3.8-8.4,8.9-9.4a8.4,8.4,0,0,1,4.7-.2c5.6,2.1,10.4,5.2,12.1,11.4,1.1,3.8.5,7.1-2.5,9.9l-1.8,1.6a4.2,4.2,0,0,0-1.2,4.4c.7,2.9,1.2,5.8,2,8.7a37.4,37.4,0,0,1,1.8,8.7,53.3,53.3,0,0,0,3.1,12.2,20.3,20.3,0,0,0,4.2.2c16.1-1.6,31,2.5,45.2,9.5,6.6,3.2,13,6.9,19.3,10.7,3.7,2.3,7,5.3,10.8,8.2l6.8-.9c9.3-1.5,18.6-2.4,28-1,7.7,1.2,15.5,1.5,23.2,2.7,9.8,1.6,19.8,2.4,29.3,5.9l6.2,2.2c7.3,2.5,12.6,7.3,16.4,14s2.6,10.5-.9,15.1a64.7,64.7,0,0,1-18.8,17.3l-21,12.8-2.7,1.9,9.2,8.1a57.3,57.3,0,0,1,4.5,3.9,18.6,18.6,0,0,0,10.7,5.8,8.9,8.9,0,0,1,7.7,8c.6,4.8-2.3,7.9-5.8,9.5a11.9,11.9,0,0,1-13-1.8c-3.2-2.5-5.1-6.1-4.1-10.5a3.9,3.9,0,0,0-.2-1.4c-8.8-4.4-18.6-6.8-26.8-12.2-10.9,4.1-21.5,8.2-32.2,12.1s-21,7.4-31.9,11.2a15.4,15.4,0,0,0,.1,3.7c1.1,6.5,2.5,13,3.7,19.5C1828.7,1503.8,1829,1506.6,1829.5,1510Zm-120-97.2-8.8,4a102,102,0,0,0-29.2,20.7,75.5,75.5,0,0,0-7.4,9.3,65.5,65.5,0,0,0-4.4,7.8c-1.2,2.3-2.5,4.6-1.4,7.8,4.8,2.2,9.7,5,14.9,6.8,11.8,4,24.1,5.7,36.5,6.2,22.8,1,45.5-1.3,67.9-5.4,8.3-1.5,16.4-3.6,24.6-5.1a161.9,161.9,0,0,0,23.8-5.8c4-1.4,7.9-2.8,12-3.9a247.9,247.9,0,0,0,29.2-10.6,399.2,399.2,0,0,0,44.2-21.3,265.2,265.2,0,0,0,24.7-15.8c2.2-1.6,3.9-3.9,5.8-6a2.6,2.6,0,0,0,.4-3.3c-1.9-3.3-3.9-6.5-7.7-8.1l-3.8-1.6a106.2,106.2,0,0,0-22.1-5.3c-17.6-2.7-35.2-5.2-53.1-4.4-3.5.1-6.8,1.3-10.8,1.6a70.4,70.4,0,0,0,3.7,7.3,65.9,65.9,0,0,1,3.8,7.5,8.1,8.1,0,0,1,.4,4.6c-1.2,3.8-2.9,7.4-6,10.2a56.6,56.6,0,0,0-4.4,4c-5.7,5.9-12.9,9.4-20,12.9s-16.5,5.8-25,8.3c-5,1.4-10.1,1.9-15.3,2.7a172.5,172.5,0,0,1-46.5.8c-4.8-.6-9.5-1.3-14.2-2.3a26.2,26.2,0,0,1-10.4-4.3c.6-2.2.9-4-.2-6.3a13.5,13.5,0,0,1-1.2-9.3A22.1,22.1,0,0,0,1709.5,1412.8Zm11.4,15.5a25.7,25.7,0,0,0,3.9,1.7c10.9,3,22,3.3,33.2,3.6,1.3,0,2.8.6,3.8-.9-1.3-3-4-4.9-6.2-7a84.3,84.3,0,0,1-11.5-13.1c-6.5-9.6-5.7-19.4-1.5-29.5a12.1,12.1,0,0,1,1.4-2c9.5-11.3,21.6-16.8,36.4-15.6,3,.3,5.9,1.4,8.8,1.8,6.7.9,11.8,4.8,16.6,9a20.8,20.8,0,0,1,5.2,7.2c2.6,6.3,3.1,12.8.5,19.3-1.4,3.7-2.9,7.4-4.5,11s-2.6,5-3.6,7.6-1.8,3.7-.3,5.8c17.3-4.8,32.4-13.1,43.8-27.7-1-4.2-3.5-7.7-6.2-11.2-6.1-8-12.9-15.1-21.8-20a182.8,182.8,0,0,0-19.8-9.9c-10-4-20.1-6.5-30.9-6.2a54.7,54.7,0,0,0-17.5,3.7,28.6,28.6,0,0,0-11.8,7.9c-1.5,1.6-3,3.3-4.6,4.7-6.8,5.7-9.3,13.8-11.8,21.8-1.2,4-1.3,8.2-1.9,12.4a54.1,54.1,0,0,0,.1,18.4A17.3,17.3,0,0,1,1720.9,1428.3Zm74.1,1.2c.4-6.2,2.8-11.4,5.2-16.7s5.4-11.9,5.8-18.7-2.3-11.8-6.9-15.8a32.5,32.5,0,0,0-20.8-8,37.2,37.2,0,0,0-22.6,6.6,18.8,18.8,0,0,0-8.4,15.1c-.7,9.1,2.8,16.8,8.6,23.5,2.6,3,5.5,5.7,8.3,8.5s5.3,5.3,6.4,9.3A89.9,89.9,0,0,0,1795,1429.5Zm150.8-23.5a4.2,4.2,0,0,0-1.4.3c-7.9,7.4-17.2,12.8-26.5,18.3-4.9,3-10,5.7-15.2,8.3-8.9,4.4-17.8,9.2-27,12.9-10.9,4.5-21.6,9.2-32.9,12.8s-19.9,6.9-30.2,9.3l-21.7,4.6-25.8,5a104.5,104.5,0,0,1-11.2,1.8l-29.3,2.1c-10.4.8-20.7-.3-31-1.4-8-.8-15.6-3.3-23.2-5.7-1-.2-1.9-.7-2.9-.8s-1.6-1.1-2.6.2a58.3,58.3,0,0,0,18,7.7c4.4,1.1,9,1.4,13.6,2.1s11.8,2.1,17.7,2.6c18.4,1.4,36.7.1,54.9-2.8,8.9-1.4,17.6-3.5,26.4-5.2a259,259,0,0,0,33.7-8.3c13.4-4.3,26.9-8.7,40.1-13.7s26.6-10.7,38.8-18.5c2.3-1.5,4.6-3.1,7-4.5,4.4-2.7,9-5.2,13.4-7.9a81.4,81.4,0,0,0,14.3-11.9C1944.8,1411.4,1946.3,1409.1,1945.8,1406Zm-133.4,74.8c4,9.4,7.6,18.1,11.7,27.5.1-1.4.2-1.9.2-2.4-.4-8-2.5-15.7-4.2-23.5a29.2,29.2,0,0,0-1.5-3.3ZM1746.8,1310a15.9,15.9,0,0,0,3.2-1.6,4.6,4.6,0,0,0,1.6-2.3,9.5,9.5,0,0,0-3.2-9.7,2.9,2.9,0,0,0-3.8.1c-3.9,3.8-4.3,10,.1,12.2Zm-24.4,184.5a189.5,189.5,0,0,0,1.1,23.9c.6-.4,1.1-.6,1.1-.9,1.5-7.2,3-14.3,4.4-21.5a4.5,4.5,0,0,0-.4-1.8C1726.6,1493.4,1724.8,1493.6,1722.4,1494.5Zm179.4-46.5c-4.4,1.6-4.4,1.6-7.3,4.6,6.6,3,13.3,6,20.4,7.8C1911.1,1455.8,1906.3,1452.2,1901.8,1448Zm-74.1,75.4c.6-.7,1.6-1.4,1.9-2.4a5.7,5.7,0,0,0-3.2-6.4,4.7,4.7,0,0,0-3.3.1c-.6.3-1,1.7-1.1,2.6a6,6,0,0,0,4.1,5.9Zm104.1-48.9a9.1,9.1,0,0,0-.4-1.6.4.4,0,0,0-.4-.3c-2.4-.5-3.6-2.1-4.6-4.2s-2.1-1.1-3.2-.5-1.1,1.5-.8,2.5c1,3.6,4.5,6.1,8,5.4C1931,1475.7,1931.4,1474.8,1931.8,1474.5Zm-213.5,48.3a8.5,8.5,0,0,0,1.9,6,4.4,4.4,0,0,0,4.2,1.9c1.1-.1,2.3-1.3,2-2.4a5,5,0,0,0-1.3-2.5C1723.2,1524.4,1721.3,1522.9,1718.3,1522.8Zm-58.6-52.6h-.5a1,1,0,0,0-.1.3h.4C1659.6,1470.5,1659.6,1470.3,1659.7,1470.2Z" transform="translate(-1648.8 -1289.5)"/><path class="b5c816ba-2fe2-4d2c-909f-1480afb1967f" d="M1775.2,1401.9a8.1,8.1,0,0,1-5,6.8c-2.8,1.3-5.5,1.9-8.4-.3-5.3-3.9-6.6-9.7-3.3-15.1s7.6-5.5,12.3-1.7C1773.1,1393.5,1775.4,1398.8,1775.2,1401.9Zm-10.1-8.6c-1.9,3.8-1.9,3.8-1.4,5.8a8.4,8.4,0,0,0,3,5.1,2.9,2.9,0,0,0,2.2.4,2.4,2.4,0,0,0,1.3-1.8C1770.4,1398.9,1769.9,1395.2,1765.1,1393.3Z" transform="translate(-1648.8 -1289.5)"/><path class="b5c816ba-2fe2-4d2c-909f-1480afb1967f" d="M1796.9,1396.4a11.1,11.1,0,0,1-7.1,10.6,5.7,5.7,0,0,1-2.9.2,8.8,8.8,0,0,1-7.2-9.4,28.4,28.4,0,0,1,1.5-6.4,8,8,0,0,1,6.3-5,6,6,0,0,1,6.3,2.3C1795.7,1391.1,1797.2,1393.7,1796.9,1396.4Zm-8.5-5.6c-2,1.4-2.5,3.3-2.6,5.5a8.9,8.9,0,0,0,2.1,5.4c.6.8,2.4.5,3-.6s1-3.7.8-5.6A5.6,5.6,0,0,0,1788.4,1390.8Z" transform="translate(-1648.8 -1289.5)"/><path class="b5c816ba-2fe2-4d2c-909f-1480afb1967f" d="M1781,1423.4c-5.5.4-9.5-4.8-9.6-8.3-.1-.6.6-1.4,1.2-1.8a1.7,1.7,0,0,1,2.6.4c1.3,1.5,2.2,3.3,3.6,4.7a3.9,3.9,0,0,0,6.6-1.6c.4-1.1.3-2.4.8-3.5s1-1.4,1.6-1.3a2,2,0,0,1,1.4,1.5,8.5,8.5,0,0,1-6.8,9.7Z" transform="translate(-1648.8 -1289.5)"/></svg>