<svg id="aacc7656-166e-4836-9752-21e40c592685" data-name="Objects" xmlns="http://www.w3.org/2000/svg" width="125.3" height="119.2" viewBox="0 0 125.3 119.2"><defs><style>.a77ce874-d002-4ebc-97c3-5b87eccab723{fill:#777;}</style></defs><path class="a77ce874-d002-4ebc-97c3-5b87eccab723" d="M1137.5,520.9c2.7-2.3,6-2.9,9.4-3a57.7,57.7,0,0,1,14.9,1.6,64.7,64.7,0,0,0,7.4,1.5c3.3-2.2,5.2-5.3,7.5-7.9s4.2-5.3,6.4-7.9a13.6,13.6,0,0,1,8.1-4.8,8.5,8.5,0,0,1,9.8,5.9c1.9,6.5,3.4,13.1,2.8,20a8.7,8.7,0,0,0,1.1,6,18.9,18.9,0,0,0,3.8,1.2c4,.5,7.6,2.1,11.4,3.5a20.1,20.1,0,0,1,6.7,4.8,7.7,7.7,0,0,1,1.9,7.2,4.2,4.2,0,0,1-1.2,2.5c-3,2.6-5.7,5.6-9.5,7.3s-8.4,4.5-12.5,6.8a7.3,7.3,0,0,0-4,5.6c-.5,4.2-1.1,8.3-1.8,12.4s-1.2,5-1.7,7.6a6.5,6.5,0,0,1-2.3,3.4c-2.8,2.4-3.5,2.6-6.9.8-5.9-3-11.4-6.6-15.7-11.7l-3-3.1c-3.5-.2-6.7,1-9.9,1.8s-6,2-9.1,2.8a9.7,9.7,0,0,1-10.9-4.3,6.6,6.6,0,0,1-1.2-5.1,5,5,0,0,1,.2-1.2c2.4-7.5,3.2-15.6,6.6-22.8,2-4.3,1.3-8-.7-12s-3.8-7.8-6.5-11.3S1137,523.7,1137.5,520.9Zm7.3,4.5c0,.7-.1,1.2.1,1.4,2.4,3.2,5,6.3,7.4,9.4,4.5,5.8,7.2,11.6,3.3,19.1a58.3,58.3,0,0,0-5.6,16.3c-.3,1.5-.9,3,.4,4.7l5.7-1.5c3.3-.6,6.6-1.3,10-1.6a9.3,9.3,0,0,1,8,3.3c1.4,1.7,3,3.2,4.5,4.8a33.4,33.4,0,0,0,9.9,7.3,6,6,0,0,0,2.9-4.6c.8-4.1,1.8-8.1,1.8-12.4s1.2-8.7,5.4-11.3,9-5.1,13.4-7.7a41.2,41.2,0,0,0,6-3.9c3.2-2.6,3.1-4.3-.4-6.3a18,18,0,0,0-3.8-1.6c-2.5-.7-5.1-1.2-7.6-1.8l-6.3-1.8a6.7,6.7,0,0,1-5.1-6.6c-.4-5.7-1.1-11.5-1.8-17.2-.2-1.2.1-2.9-1.8-3.6a12.1,12.1,0,0,0-1.6,1.6c-3.5,4.3-7.1,8.5-10.3,13.1a8.2,8.2,0,0,1-10,3.3c-4.8-1.7-9.8-1.9-14.6-2.8A17.6,17.6,0,0,0,1144.8,525.4Z" transform="translate(-1111.8 -490.3)"/><path class="a77ce874-d002-4ebc-97c3-5b87eccab723" d="M1224.7,522.4a19.4,19.4,0,0,1-2.7-2.4,2.5,2.5,0,0,1,.3-3.3c1.7-2.2,3.7-4.3,6.4-5.2a12.5,12.5,0,0,1,4.7-.4,4,4,0,0,1,3.6,2.8c.6,1.9-1,2.9-2.3,3.7s-5.1,3-7.8,4.4C1226.5,522.3,1225.8,522.2,1224.7,522.4Z" transform="translate(-1111.8 -490.3)"/><path class="a77ce874-d002-4ebc-97c3-5b87eccab723" d="M1128.3,555.3c-.2.3-.5,1.2-1.1,1.4-2.9,1.3-5.9,2.5-8.9,3.6s-3.9-.2-5.4-1.7a3,3,0,0,1,1.1-5.2,67.4,67.4,0,0,1,9.8-2.6C1126.4,550.2,1128.6,552.3,1128.3,555.3Z" transform="translate(-1111.8 -490.3)"/><path class="a77ce874-d002-4ebc-97c3-5b87eccab723" d="M1157.5,500.2v1.5c0,1.4-.1,2.9-1.8,3.3s-2.7-.7-3.5-1.9a21.1,21.1,0,0,1-4-9.2c-.5-2.4,1-3.8,3.4-3.6a5.3,5.3,0,0,1,4.4,2.7C1157.1,495.2,1158,497.4,1157.5,500.2Z" transform="translate(-1111.8 -490.3)"/><path class="a77ce874-d002-4ebc-97c3-5b87eccab723" d="M1237,592.8c-.4.2-1.1.9-1.7.8a7.1,7.1,0,0,1-3.3-1,87.3,87.3,0,0,1-7.3-6.1,8.3,8.3,0,0,1-1.8-3,2.5,2.5,0,0,1,.4-2.1,2.4,2.4,0,0,1,2.1-.6c4.9,2.4,9.2,5.3,11.6,10.5C1237.2,591.6,1237,592,1237,592.8Z" transform="translate(-1111.8 -490.3)"/><path class="a77ce874-d002-4ebc-97c3-5b87eccab723" d="M1168.5,597.1c2.7-.1,4.4,1.8,3.8,4.2a23.9,23.9,0,0,1-2.2,6c-1.4,2.7-4.4,2.8-6.2.3a5.5,5.5,0,0,1-1-3.2,9.9,9.9,0,0,1,4.2-6.8C1167.5,597.2,1168.2,597.2,1168.5,597.1Z" transform="translate(-1111.8 -490.3)"/></svg>