<svg id="a0451ec9-0be4-4794-85a2-61ddfcda1b68" data-name="Objects" xmlns="http://www.w3.org/2000/svg" width="341.3" height="297.4" viewBox="0 0 341.3 297.4"><defs><style>.b919282f-f755-4f7c-be4a-637a44a87745{fill:#777;}</style></defs><path class="b919282f-f755-4f7c-be4a-637a44a87745" d="M437,979a41.7,41.7,0,0,0,.8-5.9c.2-6.5,2.1-12.6,3.6-18.8,1-4.2,3.6-5.6,8-5a19,19,0,0,1,10.2,4.5,83.9,83.9,0,0,1,15.3,16.6c3.5-.9,7.2-1.5,10.8-2.6s7.3-1.9,10.9-2.8,7.2,0,10.5,1.5,5.9,5.2,5.1,10.2-2.9,7.7-4.6,11.5-2.7,4.9-3.9,7.4a16.2,16.2,0,0,0-.8,2.7c3.9,6.5,7.9,12.7,11.5,19.1a54.4,54.4,0,0,1,3.8,9.4,6.4,6.4,0,0,1-4.1,8.2c-2.8,1.1-5.6,2.1-8.7.9s-5.4-1.6-8-2.6l-12.9-5.1a37.9,37.9,0,0,0-3.1,4.7c-3.3,7.7-8.2,14.4-13.3,21.1s-8.7,5.1-13.6.4-5.2-8.8-7-13.7a40,40,0,0,0-1.8-4.1c-3.5,3.1-6.7,5.8-9.6,8.7a25.1,25.1,0,0,1-3.1,2.6c-3.1,2.5-6,5.2-8.9,7.9s-4.1,3.7-6.1,5.7c-4,4.1-8.1,8.2-12,12.4s-10.5,11-15.4,16.7-10.3,11.5-14.7,17.9-7.4,9.4-10.9,14.3-7.7,9.1-10.2,14.6l-.3.5c-5,4.7-8,10.9-12,16.3-2.8,3.9-5.1,8.1-7.7,12s-6.1,8.8-9.1,13.3-5.2,8-7.8,12.1a96.3,96.3,0,0,1-6.3,9.4c-4.4,5.2-7.4,11.2-11,16.9s-7,11.2-10.4,16.8l-7.1,11.8a8.8,8.8,0,0,1-8.4-3.8,50.1,50.1,0,0,1-7.2-13l-6-15.6c-.1-.3-.5-.5-1-1a24.4,24.4,0,0,0-7.9,1.4c-3.2,1.1-6.5,2.2-9.7,3s-6.3,1.1-9.4,1.7l-11.2,2.1c-5.1.8-8-.6-10.2-5.2a26.4,26.4,0,0,1-2.5-11c-.2-5.2,0-10.4.1-15.6s.2-13.4.4-20.3a83.2,83.2,0,0,0-22.2-1.3l-4.2.2c-5.4-.4-7.9-4.3-5.7-9.2a90.2,90.2,0,0,1,10.1-17.6c3.5-4.6,6.9-9.2,10.5-13.7s8.5-10.5,12.9-15.7c2.8-3.4,5.7-6.6,8.5-9.9,7-8,15.2-14.6,23.1-21.7,3.4-3,6.6-6.3,9.8-9.5s6.1-6.4,10-8.6c1.5-.9,2.4-2.6,3.9-3.7,9.2-6.9,17.9-14.6,28-20.3l2.5-1.6c7.4-5.8,15.7-10.3,24-14.5,4.6-2.4,9-5,13.7-7.3,6.6-3.3,13.2-6.6,20-9.5,10.4-4.4,20.9-8.8,31.6-12.6,7.3-2.7,14.9-4.5,22.4-6.6l21.3-5.8C432.4,979.7,434.6,979.5,437,979ZM262.2,1203.8c1.2-1.7,2.5-3.2,3.6-4.9,4.7-6.9,9.5-13.8,14.8-20.3s9.5-11.8,14.2-17.8c2.7-3.4,5.4-6.9,8.3-10.2l17.6-20.4c12.2-14.4,24.4-29,36.7-43.4,5.8-6.9,11.5-13.8,17.9-20.1s15.9-14.6,24-21.7a103.6,103.6,0,0,1,17.5-12.6l16.5-9.6c.8-.5,1.9-.9,1.4-2.5-3.9-1.4-8.1-2.6-12.2-4.3a11.6,11.6,0,0,0-8.2-.3c-3.9,1.5-7.8,3-11.6,4.7s-7.9,3.9-11.9,5.7c-10.2,4.6-20.6,8.6-30.5,13.7a319,319,0,0,0-29.4,17.3c-9.5,6.3-18.7,13-27.9,19.7s-16.1,12.4-24,18.7a61.7,61.7,0,0,0-5.4,4.8l-23,22.7a339.4,339.4,0,0,0-29.6,33.8c-1.5,2-2.9,4.3-4.4,6.5,3.1,3,3.3,6.3,2.5,10.1a67.8,67.8,0,0,0-1.4,11.9c-.2,7.6-.2,15.1-.2,22.7,0,1.6-.1,3.2,1.7,4.5l5-.8a107.1,107.1,0,0,0,21.7-4.4A126.4,126.4,0,0,1,262.2,1203.8Zm-50.8-42.3a19.4,19.4,0,0,0,1.6-1.7c5.3-9,12.1-16.9,18.8-24.8a375.3,375.3,0,0,1,31.6-32.7c3.1-2.8,5.9-6,9.1-8.6,11.5-9.4,22.8-18.8,35-27.2s23.9-16.6,36.5-23.9c6.7-3.9,13.7-7.5,20.7-10.8s15.3-6.8,23.1-10c6.2-2.5,12-6.2,18.6-8.1l7.5-2.5-1.9-2.8c-2.5-5-1.7-9.2,2.7-12.8,1.2-1,2.6-1.7,3.9-2.6l4.2-2.9c-4.6,1.1-8.3,1.7-11.8,2.8-10.9,3.4-21.8,6.5-32.1,11.3-3.3,1.5-6.6,2.8-9.9,4.2-5.4,2.2-10.8,4.2-16,6.7-10.9,5.3-21.8,10.7-32.5,16.5-6.5,3.5-12.5,7.8-18.8,11.7a259,259,0,0,0-31.1,23.2,586.9,586.9,0,0,0-43.1,40.4c-2.4,2.4-4.3,5.2-6.7,7.6-4.9,4.8-8.8,10.3-12.9,15.7s-9.1,13-14.1,19.2a54.1,54.1,0,0,0-4.8,7.6,10.6,10.6,0,0,0-.8,3.2Zm67.5,76.1c1.4-3.2,2.5-5.7,3.5-8.3,2.3-5.8,6.5-10.5,9.4-15.9a107.4,107.4,0,0,1,8.9-13.4c1.7-2.2,3.1-4.6,4.7-6.9,2.8-4.1,5.9-8,8.6-12.1,5.8-8.9,11.4-17.9,17.2-26.7,6.9-10.5,13.6-21.1,20.9-31.2s13.4-18.3,21.1-26.7c4.1-4.4,7.2-9.5,11.6-13.7,2.3-2.1,3.9-5,6.1-7.3s6.1-6.3,9.1-9.4,5.3-6,8.3-8.7c6.2-5.6,12.2-11.4,18.9-16.5,3.5-2.6,7-5.3,10.6-7.8,1.7-1.3,3.6-2.4,5.1-4.6-.5-1.5-1.1-3.1-1.8-4.9-4.4,1.5-7.8,3.9-11.4,6.1-9.1,5.7-18.6,10.9-26.7,18.2-5.8,5.2-11.6,10.3-17.3,15.7s-10.4,10-15.1,15.4c-8.8,10-17.3,20.4-25.9,30.6-10.6,12.4-21.4,24.8-31.9,37.3s-21.5,26.3-32,39.6c-5,6.4-9.5,13.3-13.9,19.7,1.7,5.6,3.1,10.8,4.9,15.9S274.7,1232.7,278.9,1237.6ZM418,1006.4l2,1.4a33.6,33.6,0,0,0,4.3,2c4.6,1.4,9.1,2.9,13.7,4.2a11.6,11.6,0,0,1,7.5,5.6,41.6,41.6,0,0,1,2.4,4.7c2.5,6.1,4.8,12.3,7.2,18.4.9,2.4,1.7,4.8,3.7,6.6,3.6-1.5,5-4.6,6.7-7.5l7.5-12.3c1.4-2.3,3-4.6,4.4-7s1.8-3.1,5-1.9l16.2,6.1a33.2,33.2,0,0,0,6.4,1.5c2.2.3,4.4.1,6-2.5a41.2,41.2,0,0,0-2.5-6.3q-2.5-4.8-5.4-9.3c-2.2-3.4-4.4-6.7-6.7-9.8a6.8,6.8,0,0,1-1.2-7.3c.8-1.8,1.7-3.6,2.6-5.4,1.8-3.5,3.6-7.1,5.2-10.7.7-1.4,1.5-2.9.4-4.8a26.9,26.9,0,0,0-4,.3c-6.6,1.5-13.1,3.1-19.7,4.8-3.5.8-6.8.1-8.5-2.6-3.7-5.9-9-10.1-13.7-15-1.8-1.8-3.8-3.5-6.9-3.9-1.3,4.9-2.6,9.4-3.6,14.1a116.6,116.6,0,0,1-3.6,14.4c-1,2.8-2.5,5.2-5,6.5-5.2,2.9-9.6,7.1-15.1,9.6C420.9,1001.3,418.4,1003,418,1006.4Z" transform="translate(-177.2 -949.1)"/></svg>