<svg id="b7bdaa60-c957-4e5d-ae75-10f69b3b11b6" data-name="分離模式" xmlns="http://www.w3.org/2000/svg" width="53.7" height="152.9" viewBox="0 0 53.7 152.9"><defs><style>.e995b5db-c8d4-40c7-afe1-eab2c5596778{fill:#767777;}</style></defs><path class="e995b5db-c8d4-40c7-afe1-eab2c5596778" d="M391.6,342.9c-4.5-.1-9-1.7-13.5-2.2a4.6,4.6,0,0,0,.7.7c-.5-5,2.4-8.2,5.7-11.7s5.8-6.8,6.9-11.4c.2-.9-1.2-1.3-1.4-.4-1.2,5.4-4.7,8.8-8.3,12.7s-4.7,6.5-4.3,10.8a.8.8,0,0,0,.7.8c4.5.4,8.9,2,13.5,2.1a.7.7,0,0,0,0-1.4Z" transform="translate(-368 -277.1)"/><path class="e995b5db-c8d4-40c7-afe1-eab2c5596778" d="M403.5,344.1c4.4,0,8.7-1.5,13-1.9a.9.9,0,0,0,.8-.8c.3-4.1-1.2-7.3-3.9-10.3s-7.4-7.5-8.7-13.2c-.2-.9-1.6-.5-1.4.4,1,4.3,3.4,7.7,6.4,10.9s6.6,6.9,6.1,12.2a2.3,2.3,0,0,0,.7-.7c-4.3.5-8.7,2-13,2a.7.7,0,0,0,0,1.4Z" transform="translate(-368 -277.1)"/><path class="e995b5db-c8d4-40c7-afe1-eab2c5596778" d="M391,341.3c0-8.8.2-17.6.8-26.4a25.1,25.1,0,0,1,3.9-12.4c.4-.6,1.7-2.9,2.7-2s2.1,3.3,2.7,4.8a17.5,17.5,0,0,1,1.4,6,237.6,237.6,0,0,1,.7,23.9c.1,2.1.1,4.3.1,6.4.6-.5.6-.7.2-.6l-1.7.2a37.1,37.1,0,0,1-4.7.3,21,21,0,0,1-6.6-.9c-.9-.3-1.2,1.1-.4,1.3,4.4,1.5,9.6,1.3,14.1.4a.8.8,0,0,0,.5-.7c0-6.4-.1-12.7-.2-19.1s.3-16.8-5.1-23c-2.3-2.6-4.7,2-5.7,3.6a25,25,0,0,0-3.3,11.2c-.7,9-.8,18-.8,27A.7.7,0,0,0,391,341.3Z" transform="translate(-368 -277.1)"/><path class="e995b5db-c8d4-40c7-afe1-eab2c5596778" d="M392.5,341.6c-3,1.8-2.4,6.5-2.4,9.5a.8.8,0,0,0,.7.7h6.3a1,1,0,0,0,.8-.7c.1-2.7.3-7.1-2-8.9-.7-.6-1.7.4-1,1s1.7,5.6,1.5,7.9l.7-.8h-6.3l.7.8c0-2.3-.7-6.9,1.7-8.2a.7.7,0,0,0-.7-1.3Z" transform="translate(-368 -277.1)"/><path class="e995b5db-c8d4-40c7-afe1-eab2c5596778" d="M399.3,341.6c-3,1.8-2.5,6.5-2.5,9.5a.9.9,0,0,0,.8.7h6.3a.8.8,0,0,0,.7-.7c.2-2.7.4-7.1-1.9-8.9-.7-.6-1.7.4-1,1s1.7,5.6,1.5,7.9l.7-.8h-6.3l.7.8c0-2.3-.7-6.9,1.7-8.2a.7.7,0,0,0-.7-1.3Z" transform="translate(-368 -277.1)"/><path class="e995b5db-c8d4-40c7-afe1-eab2c5596778" d="M392,350.7c-2,3.3-2.7,7.4-.5,10.8a.7.7,0,0,0,1.3-.2,9.7,9.7,0,0,1,2.2-3.1l-1.2-.7c-1.1,4.5,3.3,7.9,2.9,12.3,0,.8,1.3,1,1.4.2.7-3.8,2.2-7.5,2.5-11.4l-1.1.6a17,17,0,0,1,2.4,2.2.7.7,0,0,0,1.1-.1,10.2,10.2,0,0,0-.6-10c-.5-.7-1.7,0-1.2.7a8.8,8.8,0,0,1,.6,8.6l1.1-.2a19.5,19.5,0,0,0-2.6-2.4.8.8,0,0,0-1.1.6c-.3,3.8-1.8,7.3-2.4,11l1.4.2c.3-4.2-4.1-7.7-3-11.9a.7.7,0,0,0-1.2-.7,11.2,11.2,0,0,0-2.6,3.8l1.3-.2c-1.9-3-1.2-6.5.5-9.4.5-.8-.8-1.5-1.2-.7Z" transform="translate(-368 -277.1)"/><path class="e995b5db-c8d4-40c7-afe1-eab2c5596778" d="M389.6,322.2c.2-6.7.4-13.4.5-20.1.1-4.5,0-8.7,1.5-13.1.4-1.1,5.5-11.3,6.5-10.2,2.8,2.9,4.4,8,5.5,11.7s1,7.9,1,11.9v19.9a.7.7,0,0,0,1.4,0V299.2a35.4,35.4,0,0,0-2.6-13.6,44.8,44.8,0,0,0-2.9-5.8c-.5-.8-1.3-2.4-2.3-2.7s-4.7,4.8-5.4,6.1a28.1,28.1,0,0,0-4,14.3c-.1,8.2-.4,16.5-.6,24.7-.1.9,1.4.9,1.4,0Z" transform="translate(-368 -277.1)"/><path class="e995b5db-c8d4-40c7-afe1-eab2c5596778" d="M381.2,333c.1-5.2.1-10.4.1-15.7,0-3-.1-6.1.1-9.1s2.1-7.3,4-10.3h-1.1a14.7,14.7,0,0,1,4.3,9.6c0,.9,1.5.9,1.4,0a16.1,16.1,0,0,0-4.7-10.6.7.7,0,0,0-1.1.2,28.4,28.4,0,0,0-3.8,8.3c-.9,3.1-.5,6.6-.5,9.8,0,5.9-.1,11.8-.1,17.7a.7.7,0,0,0,1.4,0Z" transform="translate(-368 -277.1)"/><path class="e995b5db-c8d4-40c7-afe1-eab2c5596778" d="M380.1,342.1c0,2.5-.1,5-.1,7.5s-.3,3.9,2.5,4.2,5.9.4,6.2-1.8.1-5.9.1-8.7a.7.7,0,0,0-1.4,0c0,2.1,0,4.2-.1,6.3s.4,2.2-.9,2.6a9,9,0,0,1-4,.1c-1.1-.1-1-.3-1-1.3s.1-2.3.1-3.4v-5.5a.7.7,0,0,0-1.4,0Z" transform="translate(-368 -277.1)"/><path class="e995b5db-c8d4-40c7-afe1-eab2c5596778" d="M381.9,353.3c-.1,2.1.3,2.4,2.3,2.2s2.4.3,2.9-2.1Z" transform="translate(-368 -277.1)"/><path class="e995b5db-c8d4-40c7-afe1-eab2c5596778" d="M414.8,333c0-5.7-.1-11.4-.1-17.1,0-3.1.3-6.4-.3-9.6a25.6,25.6,0,0,0-4-9.1.7.7,0,0,0-1.1-.2,16.2,16.2,0,0,0-4.7,10.6c-.1.9,1.4.9,1.4,0a15.2,15.2,0,0,1,4.3-9.6h-1.1a28.6,28.6,0,0,1,3.8,8.8c.8,3.1.3,6.8.3,9.9,0,5.5,0,10.9.1,16.4a.7.7,0,0,0,1.4,0Z" transform="translate(-368 -277.1)"/><path class="e995b5db-c8d4-40c7-afe1-eab2c5596778" d="M413.1,342.1v5.1c0,1.1.1,2.3.1,3.5s.2,1.4-1,1.6a9.2,9.2,0,0,1-3.7-.1c-1.4-.2-1.2-.9-1.2-2.2s-.1-4.5-.1-6.7a.7.7,0,0,0-1.4,0c0,2.8,0,5.7.1,8.5s4.8,2.1,6.2,2,2.5-1.6,2.5-3.8-.1-5.3-.1-7.9a.7.7,0,0,0-1.4,0Z" transform="translate(-368 -277.1)"/><path class="e995b5db-c8d4-40c7-afe1-eab2c5596778" d="M412.7,353.2c.1,2.2-.2,2.4-2.3,2.3s-2.4.2-2.9-2.2Z" transform="translate(-368 -277.1)"/><path class="e995b5db-c8d4-40c7-afe1-eab2c5596778" d="M381,307.5c1.8-1.5,5.6-1.3,7.5-.1s1.1-.6.5-1c-2.3-1.5-6.6-1.5-8.8.3-.5.5.3,1.3.8.8Z" transform="translate(-368 -277.1)"/><path class="e995b5db-c8d4-40c7-afe1-eab2c5596778" d="M381.4,314.2c2-1.3,4.9-.9,7,0s1.2-.7.5-1c-2.4-1-5.7-1.4-8.1,0-.6.4,0,1.4.6,1Z" transform="translate(-368 -277.1)"/><path class="e995b5db-c8d4-40c7-afe1-eab2c5596778" d="M381,321.8c2.5-.8,5.3-1.2,7.7.1.7.3,1.2-.7.6-1-2.7-1.4-5.8-1.1-8.6-.2a.6.6,0,0,0,.3,1.1Z" transform="translate(-368 -277.1)"/><path class="e995b5db-c8d4-40c7-afe1-eab2c5596778" d="M381.4,328.1a9.6,9.6,0,0,1,3.4-.3c.7.1,1-1,.3-1.1a10.7,10.7,0,0,0-4,.4c-.7.1-.4,1.2.3,1Z" transform="translate(-368 -277.1)"/><path class="e995b5db-c8d4-40c7-afe1-eab2c5596778" d="M381.2,345.5a11.9,11.9,0,0,1,6.2-.2.6.6,0,0,0,.3-1.1,13.1,13.1,0,0,0-6.8.2c-.6.3-.3,1.3.3,1.1Z" transform="translate(-368 -277.1)"/><path class="e995b5db-c8d4-40c7-afe1-eab2c5596778" d="M381,350.3c2-.5,4.8-.9,6.6.3s1.2-.6.6-1-5.2-.9-7.5-.4a.6.6,0,0,0,.3,1.1Z" transform="translate(-368 -277.1)"/><path class="e995b5db-c8d4-40c7-afe1-eab2c5596778" d="M406.4,306.5c2.2-1.4,5.1-.9,7.2.4.6.4,1.2-.6.6-1-2.5-1.5-5.8-2-8.4-.3a.5.5,0,1,0,.6.9Z" transform="translate(-368 -277.1)"/><path class="e995b5db-c8d4-40c7-afe1-eab2c5596778" d="M405.8,314.4c2.5-.4,5.3-.8,7.7.3.7.3,1.2-.7.6-1-2.7-1.2-5.8-.9-8.6-.4-.7.1-.4,1.2.3,1.1Z" transform="translate(-368 -277.1)"/><path class="e995b5db-c8d4-40c7-afe1-eab2c5596778" d="M406,321.6a8.2,8.2,0,0,1,3.8-.3c1.2,0,3,.1,3.8,1s1.3-.3.8-.8-2.8-1.2-4.2-1.3a9.4,9.4,0,0,0-4.7.5c-.7.2-.1,1.2.5.9Z" transform="translate(-368 -277.1)"/><path class="e995b5db-c8d4-40c7-afe1-eab2c5596778" d="M408.6,327.3c1.6,0,3.8-.2,5.1.8s1.3-.3.8-.8-3.9-1.1-5.9-1.1a.6.6,0,0,0,0,1.1Z" transform="translate(-368 -277.1)"/><path class="e995b5db-c8d4-40c7-afe1-eab2c5596778" d="M406.8,345.8c1.9-.4,4.7-.8,6.6.1s1.2-.6.6-.9c-2.2-1.1-5.2-.7-7.5-.3-.7.1-.4,1.2.3,1.1Z" transform="translate(-368 -277.1)"/><path class="e995b5db-c8d4-40c7-afe1-eab2c5596778" d="M407,350.2a8.6,8.6,0,0,1,6.3.1c.7.3.9-.8.3-1.1a9.7,9.7,0,0,0-6.9-.1.6.6,0,0,0,.3,1.1Z" transform="translate(-368 -277.1)"/><path class="e995b5db-c8d4-40c7-afe1-eab2c5596778" d="M397,278.8c2.1,3.3,2.5,7.7,2.9,11.6a73.7,73.7,0,0,1,.3,11.5c-.1.8,1.1.8,1.1,0a80.8,80.8,0,0,0-.5-13c-.3-3.6-.9-7.6-2.8-10.7-.4-.6-1.4,0-1,.6Z" transform="translate(-368 -277.1)"/><path class="e995b5db-c8d4-40c7-afe1-eab2c5596778" d="M391.2,290.5c3.9-1,9-1.3,12.9,0,.6.3.9-.8.3-1-4.1-1.5-9.4-1.2-13.5,0-.7.1-.4,1.2.3,1Z" transform="translate(-368 -277.1)"/><path class="e995b5db-c8d4-40c7-afe1-eab2c5596778" d="M390.1,298.1c2.2-1,5-1,7.4-1a17.7,17.7,0,0,1,7.6,1,.6.6,0,0,0,.3-1.1c-2.6-1.1-5.7-1.1-8.6-1s-5.1.1-7.2,1.2-.1,1.3.5.9Z" transform="translate(-368 -277.1)"/><path class="e995b5db-c8d4-40c7-afe1-eab2c5596778" d="M393.3,306.4c2.2-1,6.8-.5,9,.2-.2-1.7-2.4-7.4-4.4-7.2S393.3,306.4,393.3,306.4Z" transform="translate(-368 -277.1)"/><path class="e995b5db-c8d4-40c7-afe1-eab2c5596778" d="M393.7,313.9c0-.7.7-4.5,4.1-4.5s3.6,3.5,3.6,4.4-1.1,1-3.9,1S393.7,314.6,393.7,313.9Z" transform="translate(-368 -277.1)"/><path class="e995b5db-c8d4-40c7-afe1-eab2c5596778" d="M408.4,331.6h1.3l.6.2c.2,0,.4.2.6.3l.6.4.6.5.5.6a2.1,2.1,0,0,1,.4.6l.3.6c0,.3.1.5.1.7a.7.7,0,0,1,.1.5v.4a.4.4,0,0,1-.1.3l-.2-.3a5,5,0,0,0-.5-.7l-.3-.4-.4-.5-.4-.4-.4-.5-.5-.5-.5-.4-.4-.4-.4-.3c-.3-.3-.6-.4-.7-.6Z" transform="translate(-368 -277.1)"/><path class="e995b5db-c8d4-40c7-afe1-eab2c5596778" d="M393.5,318.6a2.6,2.6,0,0,1,.4,1.1,7.5,7.5,0,0,1,.3,2.3,8,8,0,0,1-.3,2.3,2.5,2.5,0,0,1-.4,1,3.9,3.9,0,0,1-.3-1,8,8,0,0,1-.3-2.3,7.5,7.5,0,0,1,.3-2.3A3.9,3.9,0,0,1,393.5,318.6Z" transform="translate(-368 -277.1)"/><path class="e995b5db-c8d4-40c7-afe1-eab2c5596778" d="M393.5,328.9l-.3-.3-.3-.3v-.5c0-.2.1-.3.1-.5l.3-.3a.8.8,0,0,1,.5-.2l.2.4c.1.1.1.2.2.4v.3c0,.1-.1.2-.1.3l-.2.4A.8.8,0,0,1,393.5,328.9Z" transform="translate(-368 -277.1)"/><path class="e995b5db-c8d4-40c7-afe1-eab2c5596778" d="M413.4,294.9l.7.3.6.5.4.3.4.3.9,1a10.5,10.5,0,0,1,.8,1.1l.6,1.4a8.8,8.8,0,0,1,.5,1.5,8,8,0,0,1,.3,1.5,7.8,7.8,0,0,1,.2,1.4,20.1,20.1,0,0,1-.1,2.6,5.2,5.2,0,0,0-.2,1.1l-.3.7-.2.7a2.4,2.4,0,0,1-.1-.7,16.2,16.2,0,0,0-.2-1.8,5.2,5.2,0,0,0-.2-1.1,5.9,5.9,0,0,0-.2-1.3c-.1-.4-.1-.9-.2-1.3s-.3-1-.4-1.4a5,5,0,0,0-.4-1.3c-.1-.5-.3-.9-.4-1.3l-.6-1.2-.5-1a5.6,5.6,0,0,0-.5-.8c-.2-.2-.3-.5-.5-.6A2.5,2.5,0,0,0,413.4,294.9Z" transform="translate(-368 -277.1)"/><path class="e995b5db-c8d4-40c7-afe1-eab2c5596778" d="M369.2,339.2l.4.4.9,1,1.2,1.4,1.3,1.7.6.7.7.7.7.6.7.5.6.3.5.2.5.2h-1.9l-1-.3-1-.5-.9-.7-.8-.9a7.6,7.6,0,0,1-1.2-1.9,8.5,8.5,0,0,1-.8-1.7A9.7,9.7,0,0,1,369.2,339.2Z" transform="translate(-368 -277.1)"/><path class="e995b5db-c8d4-40c7-afe1-eab2c5596778" d="M368.5,345.2a.3.3,0,0,0,.1.2l.4.4.2.2c0,.1.1.2.2.3a.3.3,0,0,1,.1.2l.2.2.2.2a.3.3,0,0,0,.1.2l.2.3a.3.3,0,0,1,.1.2l.4.3.2.2h-.2l-.3.2h-.7l-.5-.2-.5-.2-.3-.4-.3-.5a.6.6,0,0,1-.1-.4v-.9l.3-.5Z" transform="translate(-368 -277.1)"/><path class="e995b5db-c8d4-40c7-afe1-eab2c5596778" d="M418.9,296.6h.4a1.5,1.5,0,0,1,.7.5l.5.5a2.1,2.1,0,0,0,.4.6,6.9,6.9,0,0,1,.5,1.3,2.4,2.4,0,0,1,.2.8,1.5,1.5,0,0,1,.1.7c0,.4-.1.9-.1,1.2a9.2,9.2,0,0,0-.3.9l-.2.3-.2-.3-.3-.8c-.1-.3-.3-.7-.4-1.1a1.4,1.4,0,0,0-.2-.6c0-.2-.1-.4-.1-.6a1.4,1.4,0,0,1-.2-.6c-.1-.3-.1-.5-.2-.6s-.1-.4-.1-.6a.9.9,0,0,1-.1-.5l-.2-.5c0-.1-.1-.3-.1-.4A.4.4,0,0,0,418.9,296.6Z" transform="translate(-368 -277.1)"/><path class="e995b5db-c8d4-40c7-afe1-eab2c5596778" d="M395.8,351.1s-1.8,2.2-.5,4.4c.9-1,.1-.4.9-.9-.1,1.6.6,2.2.9,3.3,1.2-1.1,1.9-2.4,1.4-3.6s.7.6,1.2.7a5,5,0,0,0-.5-3.9Z" transform="translate(-368 -277.1)"/><path class="e995b5db-c8d4-40c7-afe1-eab2c5596778" d="M381.9,399.7a.5.5,0,0,1-.5-.5V361.8a.5.5,0,0,1,1,0v37.4A.5.5,0,0,1,381.9,399.7Z" transform="translate(-368 -277.1)"/><path class="e995b5db-c8d4-40c7-afe1-eab2c5596778" d="M397.4,430a.5.5,0,0,1-.5-.5V392.1a.5.5,0,0,1,.5-.5.5.5,0,0,1,.5.5v37.4A.5.5,0,0,1,397.4,430Z" transform="translate(-368 -277.1)"/><path class="e995b5db-c8d4-40c7-afe1-eab2c5596778" d="M407.5,418.4a.5.5,0,0,1-.5-.5V380.5a.5.5,0,0,1,.5-.5.5.5,0,0,1,.5.5v37.4A.5.5,0,0,1,407.5,418.4Z" transform="translate(-368 -277.1)"/></svg>