<svg id="f16740e6-d626-4bf0-98bb-dc0236892c0b" data-name="分離模式" xmlns="http://www.w3.org/2000/svg" width="61.3" height="39.2" viewBox="0 0 61.3 39.2"><defs><style>.a4824760-4ad9-4152-b8c4-d8723654e27d{fill:#767777;}</style></defs><path class="a4824760-4ad9-4152-b8c4-d8723654e27d" d="M151.2,311.8c-5.4-8.8-.9-19.6,8.7-23.1a15.6,15.6,0,0,1,19.8,8.7c.4.9,1.7.5,1.4-.4-3.6-8.6-12.8-12.5-21.6-9.7-4.9,1.5-8.9,5.7-11,10.3s-1.2,10.4,1.5,14.9a.7.7,0,1,0,1.2-.7Z" transform="translate(-134.2 -284.5)"/><path class="a4824760-4ad9-4152-b8c4-d8723654e27d" d="M152.4,315.4c10,11.5,33.4-.3,29.8-15.2-.2-.9-1.6-.5-1.4.4,3.3,13.6-18.4,24.2-27.4,13.8-.6-.7-1.6.3-1,1Z" transform="translate(-134.2 -284.5)"/><path class="a4824760-4ad9-4152-b8c4-d8723654e27d" d="M147.6,305.5c-2.2,2-9,6.1-8.4,9.8s3.7,2.2,5.7,2c10.2-1,20.1-5.6,28.7-11.1a88.1,88.1,0,0,0,12-9.1c1.6-1.5,4.6-4.1,4.3-6.6-.7-4.9-11.1-.6-13.4.4-.8.3-.1,1.5.7,1.2s13-4.4,10.9-.2c-1.2,2.5-3.7,4.4-5.7,6.2a96.1,96.1,0,0,1-10.3,7.4,71.4,71.4,0,0,1-21.6,9.3c-2.8.8-6,1.6-9,1.1s1.2-4.1,1.9-4.8,3.5-3.1,5.2-4.6-.3-1.5-1-1Z" transform="translate(-134.2 -284.5)"/><path class="a4824760-4ad9-4152-b8c4-d8723654e27d" d="M148.3,308.1c-1.5,1.2-5.3,3.4-4.2,5.8s2.6.7,3.5.5c6.2-1,12.4-4.2,18-6.9s12-5.9,16.6-10.5c.9-.8,2.6-2.6,2-4s-4.3-1-6,.1,0,1.7.8,1.2,5-2.1,3.4.4a17,17,0,0,1-3.9,3.7,93.9,93.9,0,0,1-13,7.6,107.8,107.8,0,0,1-14.1,5.9,20.9,20.9,0,0,1-4.9,1.3c-3.2.3,1.7-3.3,2.5-3.8s0-1.8-.7-1.3Z" transform="translate(-134.2 -284.5)"/><path class="a4824760-4ad9-4152-b8c4-d8723654e27d" d="M154.6,295.4a5.7,5.7,0,0,1,1.5-2.3.5.5,0,1,0-.8-.7,7.1,7.1,0,0,0-1.8,2.7.6.6,0,0,0,1.1.3Z" transform="translate(-134.2 -284.5)"/><path class="a4824760-4ad9-4152-b8c4-d8723654e27d" d="M158,294a2.6,2.6,0,0,1,1.3-1.9.6.6,0,0,0-.8-.8,3.4,3.4,0,0,0-1.6,2.7.6.6,0,0,0,1.1,0Z" transform="translate(-134.2 -284.5)"/><path class="a4824760-4ad9-4152-b8c4-d8723654e27d" d="M161,292.5l.4-.6c.5-.5-.2-1.3-.7-.8l-.7.8c-.3.7.7,1.2,1,.6Z" transform="translate(-134.2 -284.5)"/><path class="a4824760-4ad9-4152-b8c4-d8723654e27d" d="M160.4,316a5.7,5.7,0,0,0,4.4.5.6.6,0,0,0-.3-1.1,4.7,4.7,0,0,1-3.5-.3c-.7-.3-1.2.6-.6.9Z" transform="translate(-134.2 -284.5)"/><path class="a4824760-4ad9-4152-b8c4-d8723654e27d" d="M167.2,316.1a1.5,1.5,0,0,0,1.1-.3.6.6,0,1,0-.8-.8c.1-.1-.1,0-.1,0h-.2a.6.6,0,1,0,0,1.1Z" transform="translate(-134.2 -284.5)"/><path class="a4824760-4ad9-4152-b8c4-d8723654e27d" d="M137,316.3a1,1,0,0,0-.1.4,1.1,1.1,0,0,0-.1.5v.6a6.4,6.4,0,0,0,.2.7h.1l.3.4h.2c.1.1.1.2.2.2l.7.3h4.9l-.4.2-1.1.6-1.6.6h-2.2a3.4,3.4,0,0,1-1.2-.6,2.7,2.7,0,0,1-.8-1c-.1-.2-.1-.3-.2-.4h-.1v-.3a3.1,3.1,0,0,1,.1-1l.3-.7.4-.4.3-.2Z" transform="translate(-134.2 -284.5)"/><path class="a4824760-4ad9-4152-b8c4-d8723654e27d" d="M134.6,321.3l.2.2h.1c.1.1.2.1.2.2h.4l.3.2.8.5.4.4h.2l-.2.2-.4.3a1.8,1.8,0,0,1-1.6-.1,1.6,1.6,0,0,1-.7-.7,1.2,1.2,0,0,1-.1-.8,1,1,0,0,1,.1-.3c.1-.1.1-.2.2-.2Z" transform="translate(-134.2 -284.5)"/><path class="a4824760-4ad9-4152-b8c4-d8723654e27d" d="M188.5,285.4h.1l.3-.2.6-.2.7-.2,1.8-.2,1.1.3h.8l.3.2a2.2,2.2,0,0,1,.7.9,2.4,2.4,0,0,1,.5,1,4.5,4.5,0,0,1,.1,1.1,3,3,0,0,1-.2,1,1.5,1.5,0,0,1-.5.6l-.4.4-.4.2h-.1l.2-.4c.1-.2.2-.3.2-.5s.1-.4.1-.6a1.3,1.3,0,0,1-.1-.6l-.3-.7a2.1,2.1,0,0,0-.4-.6l-.5-.6h-.6l-.8-.2-1.5-.4-1.2-.2Z" transform="translate(-134.2 -284.5)"/><path class="a4824760-4ad9-4152-b8c4-d8723654e27d" d="M192.1,292.9a.3.3,0,0,1,.1.2c0,.1.1.2.1.4a1.1,1.1,0,0,1-.2.6.6.6,0,0,1-.7.2h-.5a.3.3,0,0,1-.1-.2c0-.1-.1-.2-.1-.3a1.2,1.2,0,0,1,.2-.7.8.8,0,0,1,.7-.2h.5Z" transform="translate(-134.2 -284.5)"/></svg>