<svg id="fb03367e-48ee-4ace-8c7f-530b6d211005" data-name="Objects" xmlns="http://www.w3.org/2000/svg" width="129" height="136.1" viewBox="0 0 129 136.1"><defs><style>.b5a596e8-5833-4485-88f5-1cb4a420de01{fill:#777;}</style></defs><path class="b5a596e8-5833-4485-88f5-1cb4a420de01" d="M1570.6,853.4c-11.1-1.2-22.2-2.7-32.5-7.5-7.5-3.5-14-8.4-18.3-15.7-1.3-2.2-2.7-4.4-4.1-6.5-5.5-8.4-7.2-18.2-9.5-27.6a45.9,45.9,0,0,1,.2-22.4c3-12.6,3.7-15.9,10.2-24.9a73.9,73.9,0,0,1,11.4-12.3,87,87,0,0,1,21.5-13.9,106.6,106.6,0,0,1,12.5-3.9c7.5-2,15-1.2,22.5-.5a46.1,46.1,0,0,0,5.3-.2,6.9,6.9,0,0,1,2.9.2,2.3,2.3,0,0,1,.9,1.9,2.7,2.7,0,0,1-.9,1.5c-1.7,1.6-3.4,3.3-5.3,4.8a82.6,82.6,0,0,0-12.4,11.2c-9.2,10.5-13.5,22.5-12.1,36.4.3,2.6.8,5.1,1.3,7.6a13.6,13.6,0,0,0,1.1,2.8,13.4,13.4,0,0,1,1.7,3.1c1,4.5,3.8,7.8,7.2,10.6,1.1.9,1.8,2.1,2.9,3a49.9,49.9,0,0,0,20.7,10.3c10.1,2.2,20.2,1.9,29.8-2.9,1.6-.8,3.3-2.2,5-.9s1.4,3.7.7,5.5a35.7,35.7,0,0,1-4.3,8.5c-3,4.2-6.6,7.9-9.9,12s-6.2,5.6-9.6,8a65.5,65.5,0,0,1-23.5,10.1C1580.9,852.7,1575.8,853.9,1570.6,853.4ZM1625,816c-.7-.1-1.1-.4-1.4-.3-5.3,2.5-10.8,3.6-16.6,4.5s-13-.2-19.2-2.4a24.4,24.4,0,0,0-4.6-1.4,22.4,22.4,0,0,1-6-2.5c-4.9-2.4-8.8-6.2-12.5-10s-5.8-8-8.6-12.1c-3.7-11.2-4.9-22.5-1.5-34a37.7,37.7,0,0,1,1.8-5.7c4.3-8.6,9.6-16.5,16.9-23,.8-.8,1.4-1.7,2.3-2.6a18.9,18.9,0,0,0-14.4-.3c-1.1.4-2.4.4-3.5.8a54.9,54.9,0,0,0-6.8,2.4c-7.5,3.4-13.6,8.9-19.8,14.2s-11.5,15.1-13.8,24.5c-.9,3.9-1.4,7.8-2.1,11.8a9.7,9.7,0,0,0,.2,2.9c1.2,9.3,2.7,18.5,6,27.4,1,2.9,1.6,6.1,4.1,8.5a10.4,10.4,0,0,1,1.5,2.5,34.7,34.7,0,0,0,9.3,11.5c6.5,5.5,14.5,8.1,22.5,10.5,4.3,1.3,9,1.6,13.6,2a46.7,46.7,0,0,0,18.9-2.1,59,59,0,0,0,21.3-11.9C1617.5,826.8,1621.3,821.6,1625,816Z" transform="translate(-1504.9 -717.4)"/></svg>