<svg id="b117aae6-adeb-484a-93c5-888a78085fdd" data-name="分離模式" xmlns="http://www.w3.org/2000/svg" width="28.7" height="14.7" viewBox="0 0 28.7 14.7"><defs><style>.bf54744f-2563-488c-908b-7a080f744415{fill:#767777;}</style></defs><path class="bf54744f-2563-488c-908b-7a080f744415" d="M484,400.9c-7.8-2.9-12.8,9.9-5.5,13.5a7.5,7.5,0,0,0,10-3.5c1.8-4-.6-8.3-4.3-10-.7-.3-1.2.7-.6,1,3.3,1.5,5.1,4.6,4,8.1s-5.7,4.8-9,3.2c-5.9-2.9-1.2-13.6,5.1-11.3C484.4,402.2,484.7,401.1,484,400.9Z" transform="translate(-467.6 -400.5)"/><path class="bf54744f-2563-488c-908b-7a080f744415" d="M476.2,404.2c-1.6-.3-5.8-1-6,1.6s6.7,4.7,8.5,5.3a56.6,56.6,0,0,0,9.1,1.9c1.5.2,3.5.5,4.9-.2,3.1-1.6-2.7-4.5-3.7-5s-1.2.7-.5,1a20.9,20.9,0,0,1,3.4,2.1c1.2,1-.5,1.1-1.3,1.1-3.2.2-6.6-.7-9.7-1.5s-6.5-1.7-8.9-3.8,3-1.6,3.9-1.5,1-.9.3-1Z" transform="translate(-467.6 -400.5)"/><path class="bf54744f-2563-488c-908b-7a080f744415" d="M484.3,405h1.2l.4.3.3.4a.8.8,0,0,0,.2.4,3.2,3.2,0,0,1,.2,1.6,2.4,2.4,0,0,1-.3.8v-.2a.8.8,0,0,1-.2-.5l-.6-1.3-.6-1.1h-.1l-.2-.2Z" transform="translate(-467.6 -400.5)"/><path class="bf54744f-2563-488c-908b-7a080f744415" d="M468.5,404.5h0c-.1,0-.1-.1-.1-.2v-.3a.5.5,0,0,1,.2-.4,2.4,2.4,0,0,1,1.7-1.5l.6-.2h.6l1,.3a1.5,1.5,0,0,1,.6.4l.2.2h-.9l-.8.2-.9.2-1.5.7-.3.2h-.2Z" transform="translate(-467.6 -400.5)"/><path class="bf54744f-2563-488c-908b-7a080f744415" d="M468.5,407h-.4a.7.7,0,0,1-.5-.4.9.9,0,0,1,.3-.7l.4-.2.4.2c.2.1.4.2.3.4a.1.1,0,0,1,.1.1H469c0,.1-.1.2-.1.3Z" transform="translate(-467.6 -400.5)"/><path class="bf54744f-2563-488c-908b-7a080f744415" d="M492.7,414.2h.3l.4-.2.3-.2.4-.3.3-.3.3-.4v-.2c0-.1,0-.1.1-.2V412a.9.9,0,0,0-.1-.5c0-.1-.1-.3-.1-.4l-.3-.4c-.1-.1-.1-.3-.2-.4s-.2-.2-.2-.3l-.2-.3h.3a1.6,1.6,0,0,1,.9.3h.2l.3.2.5.6.2.3c0,.2.1.3.1.5a2.7,2.7,0,0,1,0,.9c-.1.2-.2.3-.2.4l-.3.4-.6.6-.6.3H493Z" transform="translate(-467.6 -400.5)"/></svg>