<svg id="b1c20ed1-eabb-4b89-8076-6d3fd9be3efd" data-name="分離模式" xmlns="http://www.w3.org/2000/svg" width="15.8" height="17.2" viewBox="0 0 15.8 17.2"><defs><style>.f28b59e5-9cc0-4558-951f-3c7fcfd9fe39{fill:#767777;}</style></defs><path class="f28b59e5-9cc0-4558-951f-3c7fcfd9fe39" d="M479.8,432.2c-1.5.7-4.1,2-4.6,3.7s3.7,2,4.9,2.2l-.4-.7c-.1,1.2-1.4,6,.7,6s3.7-2.9,4.7-4.2l-.8.2c1.2.5,8,3.1,6.4-.6a8.7,8.7,0,0,0-1.7-2.2c-.2-.2-.8-.7-.7-.8s.9-1.2,1.4-1.8,1.8-2.6.4-3.1-3.5-.6-5.2-.7c.5,0,.4.3.1-.3l-.8-1.3a9.6,9.6,0,0,0-1.8-2.2c-2.5-1.5-2.8,4.9-2.9,6.3s1,.7,1.1,0a18.5,18.5,0,0,1,.7-4.1c.5-2.6,2.4,1.3,3,2.4s1.9.4,2.5.4l2.8.4c.2.1-2.4,3.6-2.5,3.7a.6.6,0,0,0,0,.8c.5.6,3.9,3.9,1.2,3.3a13.8,13.8,0,0,1-3.4-1.2.6.6,0,0,0-.8.2,20.9,20.9,0,0,1-2.4,2.8c-2.1,2.1-1.1-2.6-.9-3.7a.6.6,0,0,0-.4-.7c-.9-.2-5,0-3.5-1.6a11.3,11.3,0,0,1,3.4-2.3C480.9,432.8,480.4,431.8,479.8,432.2Z" transform="translate(-475.2 -426.2)"/></svg>