<svg id="b6889a27-4147-4312-be70-ad966dfa6c73" data-name="Objects" xmlns="http://www.w3.org/2000/svg" width="169.7" height="152.1" viewBox="0 0 169.7 152.1"><defs><style>.acf72b41-9bd3-44ec-86a5-8777bf150c5c{fill:#777;}</style></defs><path class="acf72b41-9bd3-44ec-86a5-8777bf150c5c" d="M1315.7,213c2.5,4.1,4.8,8,7.4,11.8a26.7,26.7,0,0,1,4.8,12.7,14.9,14.9,0,0,0,.9,3.1c2.5,1.6,5.5,2,8.3,2.6a34.7,34.7,0,0,1,5.7,1.9c4.8,2.2,7.1,6.7,5.9,13s-2.3,10.9-3.5,16.4c-.2.9-.4,1.9-.7,2.9-1.4,5.2-4.4,7.5-9.7,6.4-7.2-1.5-11.9,2.1-16,7-2,2.4-3.3,5.4-5.1,8-3,4.5-6,9-9.4,13.2a17.7,17.7,0,0,1-6.7,4.9c-3.2,1.4-6.1,3.6-9.4,5.1a59.1,59.1,0,0,1-10.6,4c-5.4,1.2-10.7,1.2-15.4-2.4-3-2.4-6.1-4.6-9.1-6.9s-5.5-2.8-9,0a14.7,14.7,0,0,0-2.2,2.1,12,12,0,0,1-10,4.4,8.1,8.1,0,0,0-4.6.9c-3.4,2.1-6.7,1.1-9.6-.9a125.2,125.2,0,0,1-10.9-8.3c-4.5-3.8-5-6.6-2.8-12.2s2.4-5.8-1.9-10a31.3,31.3,0,0,1-9-16.6,73.2,73.2,0,0,1-1.2-15.5,31.8,31.8,0,0,0-.6-8c-1.6-1.1-3.4-2.3-5.1-3.7a16.9,16.9,0,0,1-6.9-14.5c.2-3,.5-6,.9-8.9s1.7-3.4,3.7-4.5,6.8-2,10.3-2.9,6.6-1.4,9.9-2.3,7.6-3.4,9.1-8.4c2.5-8.7,8.9-14.5,16.2-19.3,4.4-2.8,9.5-2.8,14.5-1.9,7.8,1.5,15.6,3.2,23.4,4.9a2.7,2.7,0,0,1,1.2.3c4.6,1.7,7.9-.2,10.9-3.7a89.9,89.9,0,0,1,9.1-9.4,12.6,12.6,0,0,1,12.9-3c10.1,3.4,16.9,10.4,19.3,21,.5,2.3-.3,5.1-1.1,7.5A76.4,76.4,0,0,1,1315.7,213Zm18.7,63.9a13.8,13.8,0,0,0,1.4-2.5c1-3.9,1.9-7.7,2.7-11.6a49.1,49.1,0,0,0,1-7.7c.3-3.9-.9-5.5-4.6-6.5a25.2,25.2,0,0,0-4.6-1c-3.4-.1-6.1-1.7-8.9-3.2a4,4,0,0,1-2.3-4.4c.8-5.8-1.7-10.7-4.8-15.1s-7.2-10.6-12-14.9a2.4,2.4,0,0,1-.7-2,3.4,3.4,0,0,1,2.2-1.7,45.6,45.6,0,0,1,6.4-.1c2.8-3.9,3-8.2,2.3-12.7a7.7,7.7,0,0,0-1.4-3.2,41.8,41.8,0,0,0-8.5-8.3,4.5,4.5,0,0,0-5.5-.2,14.9,14.9,0,0,0-2.7,2.3l-10.3,10.8c-2.9,3.1-6.4,4.5-10.8,3.4s-7-1.4-10.5-2.1l-18.8-3.6a11.9,11.9,0,0,0-9.1,1.9c-3.6,2.2-6.2,5.6-9.2,8.4a11.2,11.2,0,0,0-3.3,4.8c-.5,1.5-1.1,3-1.5,4.6a9.8,9.8,0,0,1-3.1,4.9,24.9,24.9,0,0,1-11.6,6c-4.4,1.1-9,1.6-13.5,2.7s-5.6,2-6,7.2c-.1.4-.1.8-.2,1.2-.9,5.6,1,9.8,6.2,12.3l.6.2a9.6,9.6,0,0,1,5.7,9.1c-.1,3.8.1,7.6-.1,11.3-.5,9,2.2,16.5,9.2,22.4a22.6,22.6,0,0,1,4.3,4.9c1.8,2.9,2.4,5.9.7,9.1s-2.3,3.8-2,6.6l6.3,4.9c1.6,1.2,3.1,1.6,5,.6a10.3,10.3,0,0,1,5.8-1.2,7.1,7.1,0,0,0,6.7-3.1,14.2,14.2,0,0,1,2.2-2c2.4-1.5,4.7-3.4,7.5-3.3s6.4.6,9.1,2.7a65.4,65.4,0,0,1,6.5,5.3c3.8,3.8,8.1,4.7,13.1,3.2s10.9-3.8,15.6-7.3a14.7,14.7,0,0,1,4.2-2.4,13.8,13.8,0,0,0,9.5-9.1,19.2,19.2,0,0,1,4.1-7.2c1.4-1.6,2.3-3.7,3.5-5.5a9.6,9.6,0,0,1,1.2-2c4-3.8,8.5-6.7,14.2-6.8Z" transform="translate(-1179.3 -174.6)"/><path class="acf72b41-9bd3-44ec-86a5-8777bf150c5c" d="M1255.8,276.6c.4,7.4-5.9,14.7-13.1,15.1a25.8,25.8,0,0,1-18.4-5.6,22.1,22.1,0,0,1-8.4-16.5,14.5,14.5,0,0,1,3.6-10.5c2.7-2.9,6.3-4,10.3-4s9.1.8,13.1,3.3a11,11,0,0,0,2.6,1.5c5.5,1.9,7.7,6.7,9.7,11.4C1255.8,272.9,1255.6,274.8,1255.8,276.6Zm-23.2-16.7c-9.1-.4-12.4,5.6-11.8,12a13.7,13.7,0,0,0,7.4,10.3,30.6,30.6,0,0,0,10.3,3c5.3.9,9.4-2.8,10.6-7.5s-.8-10.6-5.1-12.8a23.9,23.9,0,0,1-5.2-2.9A9.1,9.1,0,0,0,1232.6,259.9Z" transform="translate(-1179.3 -174.6)"/><path class="acf72b41-9bd3-44ec-86a5-8777bf150c5c" d="M1298.3,229.3c-.5,3-.3,7.4-2.9,11.3a8.5,8.5,0,0,1-8,4.1c-8.5-.6-14.9-4.3-18.4-12.2a18,18,0,0,1-.5-13.3c3.1-8.9,10.6-11.3,18.7-7.8a23.2,23.2,0,0,1,6.4,4.3C1297.3,218.9,1298.6,223.2,1298.3,229.3Zm-7.2-1.2c-.6-2.2-1-5-1.9-7.6s-4.2-4.1-6.9-5.3-3.8,1-5.3,2.1a5.9,5.9,0,0,0-2,3.5,32.9,32.9,0,0,0-.6,7.7c.3,5.4,3.4,8.7,8.3,10.5s6.4-.2,7.3-3.9C1290.5,233,1290.7,230.8,1291.1,228.1Z" transform="translate(-1179.3 -174.6)"/><path class="acf72b41-9bd3-44ec-86a5-8777bf150c5c" d="M1297.3,265.1a13.2,13.2,0,0,1-7.2,10.2c-6,3-13.2-1.9-13.4-8.9a9.4,9.4,0,0,1,2.2-6.7,34.5,34.5,0,0,1,5.6-5.2,5.8,5.8,0,0,1,5.7-.6C1294.6,255.4,1297.3,259.2,1297.3,265.1Zm-10-7.5a56.6,56.6,0,0,0-4.2,4.3,8.7,8.7,0,0,0-2.4,6.6,3.6,3.6,0,0,0,5.2,3,10,10,0,0,0,5.8-8.6C1291.9,260.6,1291.2,258.1,1287.3,257.6Z" transform="translate(-1179.3 -174.6)"/><path class="acf72b41-9bd3-44ec-86a5-8777bf150c5c" d="M1253.1,249.6c-3.1-.2-5.1-1.9-7.2-3.3s-4.5-2.6-6.6-4.1-7.3-2.8-11.4-2.2c-1.7.3-3.4.8-5.2,1a7,7,0,0,1-2.9-.2,2.1,2.1,0,0,1-.8-3.4,13.2,13.2,0,0,1,2.9-1.9c5-1.8,10.1-2.6,15.2-.5s9.8,4.5,13.7,8.3a10.9,10.9,0,0,1,2.3,3.3C1253.5,247.4,1253.1,248.4,1253.1,249.6Z" transform="translate(-1179.3 -174.6)"/></svg>