<svg id="ff176797-790c-46b1-90d6-c6a050828ae7" data-name="Objects" xmlns="http://www.w3.org/2000/svg" width="193.3" height="186.7" viewBox="0 0 193.3 186.7"><defs><style>.f1d5b4a3-2513-4d0d-abda-2c6c058ed502{fill:#777;}</style></defs><path class="f1d5b4a3-2513-4d0d-abda-2c6c058ed502" d="M2349.7,496.8c-.1,9-.6,20.2-3.2,31.1a64.7,64.7,0,0,1-15.7,29.8c-3.6,3.9-7.3,7.8-11.1,11.6a27.3,27.3,0,0,1-4.3,3.3c-5.2,3.3-10.4,6.7-15.7,9.9s-13.7,5.1-20.7,7.3-15.8,2-23.7,3.3a51.4,51.4,0,0,1-16.6,0c-8.8-1.4-17.7-2.8-25.8-7-3.8-2.1-7.9-3.7-11.9-5.6a10.6,10.6,0,0,1-2.1-1.1c-6.1-4-12.8-7.4-18-12.7-3.6-3.6-7.6-7-9.7-11.9a3,3,0,0,0-.7-1c-4.9-6.2-7.5-13.6-10-20.9a74.1,74.1,0,0,1-2.9-14,100.1,100.1,0,0,1-1.1-15.5c.2-9.7.9-19.5,4.2-28.8,1.6-4.3,3-8.7,4.7-13,3.3-8.5,8.8-15.5,14.7-22.4,4.8-5.4,10.5-9.7,16.3-14a64.8,64.8,0,0,1,10.8-6.3,114.1,114.1,0,0,1,27-9.5c23.1-4.9,45.2-1.8,66.5,8,4,1.8,7.7,4.2,11.5,6.3l7.1,4.4a16.4,16.4,0,0,1,4.9,4.2c3,3.7,6.7,6.8,9.7,10.6,5.4,6.8,10.5,14,12.4,22.8.6,3.1,2.5,5.9,2.4,9.2s.9,4.3,1,6.5C2349.8,485.8,2349.7,490.2,2349.7,496.8Zm-7.8-15.6a23.2,23.2,0,0,1-4.4-1.2c-4.8-2.4-9.6-1.8-14.5-.3a62.2,62.2,0,0,0-14.8,6.3,52.8,52.8,0,0,1-16.8,6,11.3,11.3,0,0,1-7-.8,11.9,11.9,0,0,1-6-5.5c-4.5-7.5-7.2-15.1-2.5-23.7a17.1,17.1,0,0,0,1.5-5.7c.4-3.1-.7-5.5-3.7-6.8a36.6,36.6,0,0,0-5.5-2.1,12.7,12.7,0,0,1-5.2-2.9c-3.7-3.2-6.4-7.1-7.2-12.1a24.8,24.8,0,0,0-5.2-12.5,4.7,4.7,0,0,1-1.1-2.1c-.1-.7.1-1.8.6-2.1a4.8,4.8,0,0,1,2.7-.4,2.5,2.5,0,0,1,1.3,1.2c3.1,4.4,6.3,8.7,7.8,14,1.1,3.6,3.1,6.4,7,7.6,2,.7,3.8,1.7,6,2.3,7.3,1.7,10.6,7.5,9,15a56.1,56.1,0,0,1-2.7,9.1,12.5,12.5,0,0,0,1,11,30.6,30.6,0,0,1,2.1,2.9c2,4.3,5.7,4.6,9.6,3.8a43.5,43.5,0,0,0,12.4-4.3c3.5-1.8,7.1-3.6,10.7-5.1,7.6-2.9,15.1-3.5,23.2.7-.3-1.9-.2-3.4-.7-4.5a80.4,80.4,0,0,0-10.1-16.9c-4.3-5.2-8.8-10.2-13.1-15.5a24.2,24.2,0,0,0-8.2-6.7c-3.9-2-7.9-3.7-11.7-6-8.9-5.4-19-7.1-28.9-8.9-6.8-1.2-14-.8-20.9-.8-5.2,0-10.2,1.4-15.3,3.3,1.2,2.4,2.3,4.4,3.2,6.6,3.2,8.6,1.7,17-1.9,25-2.1,4.5-5,8.6-7.5,12.9a38.8,38.8,0,0,0-3,5.2c-1,2.8-2.3,5.5-1.2,8.7,2,5.4,5.3,9.3,11.1,10.7,2.7.7,5.4,1.6,8,2.4a10.7,10.7,0,0,1,5.9,3.8c4.8,6.1,8,12.8,7.7,20.8-.1,3.6-.1,7.2-.2,10.7a26.5,26.5,0,0,0,4.8,15.7,9.3,9.3,0,0,0,4.6,3.7c3.1,1,6.5,1.6,9.4.5s8.2-1.6,12.3-2.5,9.2-.3,13.7.3a41.2,41.2,0,0,1,14.4,5.3c4.1,2.3,8,5.4,13.4,5.1a8.9,8.9,0,0,0,2-1.9c2-2.7,3.9-5.5,5.8-8.3,3.6-5,5.1-10.7,6.5-16.5,1.9-8.1,2-16.3,2.7-24.4A62.3,62.3,0,0,0,2341.9,481.2Zm-178.1,15c3.6,3.5,7.2,4.2,11.5,3.8s10.3,1,15.2,2.6,11.8,3.8,17.5,6a49,49,0,0,1,8.7,3.9c5.9,3.8,10.2,9,11.4,16.1.8,5.1,1.2,10.3-.3,15.5-1,3.6-2,7.3-2.9,10.9-1.4,5.7-.9,10.9,2.9,15.8s8.3,7.4,12.9,10.6a18.2,18.2,0,0,0,12.4,3c3.6-.2,7.2,0,10.7-.7,5.7-.9,11.5-1,17-3,3.2-1.1,6.5-1.8,9.7-2.9s4.8-1.9,7.2-2.9c6.1-2.6,11.4-6.5,16.5-10.8,1.1-.9,2.9-1.4,3.1-3.6-2.1-1.2-4.5-2.3-6.6-3.7-6.5-4.6-14.1-5.2-21.5-6.9a6.7,6.7,0,0,0-2.4.2c-4.7.8-9.4,1.5-14.1,2.6a33,33,0,0,1-11.3.4,11.3,11.3,0,0,1-5.4-2.3,24.4,24.4,0,0,1-8.9-15.6,81.2,81.2,0,0,1-.8-15.6,28.1,28.1,0,0,0-2.8-14.5c-2.4-5.1-5.8-8.9-11.8-9.7-4-.6-7.5-2.7-10.9-4.7s-6.1-6.2-7-10.6c-1.2-5.9.3-11.1,3.4-16s5.2-8,7.9-12c5.5-8.4,7.8-22.7-2-32.7-2.1.5-4.6.8-6.7,1.8-7.9,3.8-15.8,7.4-22.8,13.1a75.3,75.3,0,0,0-23.2,30.6c-.9,2.4-1.7,4.9-2.4,7.4C2165.6,480.1,2163.8,488,2163.8,496.2Zm60.6,84.1c-1.3-1.7-1.8-2.4-2.3-3.2-3.8-5.7-5.7-11.8-3.9-18.7q1.4-5.2,2.4-10.5c.6-3.1,1.2-6.2,1.5-9.4a20.8,20.8,0,0,0-2.2-10.4c-2.6-4.9-7-8.1-12-10.1s-8-2.6-12-3.8l-9.7-2.8a52.8,52.8,0,0,0-19.3-2.7,6.4,6.4,0,0,0-1.9.7,30.1,30.1,0,0,0,2.6,15.4c23.7-2,39.9,20.5,31,43.2,5.7,5.8,14,6.9,20.8,10.9C2220.5,579.5,2222,579.6,2224.4,580.3ZM2192.5,564c6.3-14.6-7.6-32.2-22.5-32.7.2,5.4,3.8,9.5,5.2,14.3C2180.8,551.7,2184.5,559.6,2192.5,564Z" transform="translate(-2156.5 -407.1)"/><path class="f1d5b4a3-2513-4d0d-abda-2c6c058ed502" d="M2247.8,448.5a32.1,32.1,0,0,1,12.9,3.5c7.3,3.6,8.8,14.8,2.8,20.4a22.2,22.2,0,0,1-4.2,3.2c-3.3,2-6.7,2.8-10.3,1l-11.1-5.8c-2.3-1.3-3.2-3.5-3.5-5.9a16.6,16.6,0,0,1,3-11.9C2240,449.4,2244.1,449,2247.8,448.5Zm14,17.2c-3.7-8.3-7.8-10.9-15.8-10.9-3.7,0-5,1.1-5.4,4.8a30.1,30.1,0,0,0-.1,3.2l5,3.1a36.7,36.7,0,0,1,4.8,2.6c2.9,2.3,5.5,1.7,8.1-.3Z" transform="translate(-2156.5 -407.1)"/></svg>