<svg id="a5830572-8d19-4a54-9ff5-93c7b41f475f" data-name="修" xmlns="http://www.w3.org/2000/svg" width="177.5" height="102.2" viewBox="0 0 177.5 102.2"><defs><style>.a56d63f5-d76a-46ca-bffb-4224ac6a0ac1,.fd85612d-56b7-41da-b181-d9bca4fadb75{fill:#df051c;}.fd85612d-56b7-41da-b181-d9bca4fadb75{fill-rule:evenodd;}</style></defs><path class="fd85612d-56b7-41da-b181-d9bca4fadb75" d="M74,26.5l-.2.6a6.8,6.8,0,0,1-3.5,3.6,7.1,7.1,0,0,1-5.2.2h-.2l-1.6-.8L61.2,29h-.1c-.4-.3-1.3-.6-2.5-1.2.1,2.2,0,4.3-.1,6.3a43.3,43.3,0,0,1-2.2,10.6h0a28.1,28.1,0,0,1-5.5,9.6,22.2,22.2,0,0,1-8.7,6.1h0a31.2,31.2,0,0,1-11.3,2.3,35.7,35.7,0,0,1-11.8-2h0a27.8,27.8,0,0,1-8.5-4.5A30.8,30.8,0,0,1,3.7,49h0a21,21,0,0,1-3-5.3,7.8,7.8,0,0,1-.3-5.6A5.8,5.8,0,0,1,4,34.6a7.2,7.2,0,0,1,5,.1,7.5,7.5,0,0,1,3,2.1,19.7,19.7,0,0,1,1.6,2.6h0A17.9,17.9,0,0,0,17.8,45a18.4,18.4,0,0,0,6.5,3.5,15.8,15.8,0,0,0,5.9,1.1,14.9,14.9,0,0,0,5.5-1h.1a10.4,10.4,0,0,0,4.1-2.8A18.8,18.8,0,0,0,43.2,40h0a31.6,31.6,0,0,0,1.5-8.4,58.4,58.4,0,0,0-.4-9.1Q38,20.3,32.6,18.6L22.2,15.5h0l-4.1-1.1-2.3-.5-1-.2a7,7,0,0,1-3.9-3.4,6.2,6.2,0,0,1-.1-5h0a5.9,5.9,0,0,1,3.5-3.7,8.4,8.4,0,0,1,5-.2h0q7.3,2,14.7,4.2c5.1,1.5,10,3.1,14.9,4.8l11.8,4.2a64.4,64.4,0,0,1,7.5,3.1h0a11.9,11.9,0,0,1,4.4,3.2A5.7,5.7,0,0,1,74,26.5Z"/><path class="fd85612d-56b7-41da-b181-d9bca4fadb75" d="M80.1,27.4a19.8,19.8,0,0,1,20.3-1L95.2,51.6c-2.4,6.5-7.9,7-8.4,7a12.3,12.3,0,0,0,2.6-1.2,9.9,9.9,0,0,0,2.7-13.7,9.8,9.8,0,1,0-16.3,11,7,7,0,0,0,1.4,1.6c1,1.3,4.2,4.4,10.7,4.2,8-.3,10.8-8.4,10.8-8.4l5-23.4a19.5,19.5,0,0,1,3.6,4,19.6,19.6,0,1,1-27.2-5.3Z"/><path class="fd85612d-56b7-41da-b181-d9bca4fadb75" d="M176.5,30.4a37.7,37.7,0,0,1-19.2,19.3h0a36.4,36.4,0,0,1-12.7,3.1A31.1,31.1,0,0,1,136,52c-.2.6-.3,1.1-.4,1.5a7.5,7.5,0,0,0-.2,2.4v.4a9.7,9.7,0,0,1-.1,1.8l-.3,1.7-.3.7a6.4,6.4,0,0,1-3.8,3.1,7.6,7.6,0,0,1-5.5-.4h-.3a8.2,8.2,0,0,1-4.2-5.1,14.5,14.5,0,0,1-.1-6.3h0a18,18,0,0,1,.9-3.5c.2-.7.5-1.5.7-2.3a28.3,28.3,0,0,1-5.6-5.3,26.1,26.1,0,0,1-4.8-9.2h0a30.4,30.4,0,0,1-.9-12.8,42.5,42.5,0,0,1,4-13.4A9.1,9.1,0,0,1,118.3,1a6.9,6.9,0,0,1,6.4-.4,6.6,6.6,0,0,1,4.2,4.3,6.9,6.9,0,0,1-.6,5,34.3,34.3,0,0,0-3,10,22.5,22.5,0,0,0,.3,9h0a12.4,12.4,0,0,0,2.9,5.7,13.9,13.9,0,0,0,5.5,3.6,21,21,0,0,0,8.4,1.7,19.9,19.9,0,0,0,8-1.9h0a23.3,23.3,0,0,0,7.4-5.1,37.7,37.7,0,0,0,5.8-8.7h0a8.2,8.2,0,0,1,3.2-3.6,6.2,6.2,0,0,1,5.9-.3c2.5,1,4,2.5,4.5,4.7a7.4,7.4,0,0,1-.7,5.5Z"/><path class="a56d63f5-d76a-46ca-bffb-4224ac6a0ac1" d="M163.9,87.3a2.1,2.1,0,0,0-1.5-.4h-.9V83.7a3.5,3.5,0,0,0-.7-2.3,3.1,3.1,0,0,0-2.4-.7h-4.7l.7-2h7.2a2.1,2.1,0,0,0,1.5-.5,2.1,2.1,0,0,0,.4-1.2c0-.7-.2-.9-.5-1.1s-.7-.4-1.4-.4H145.9a2,2,0,0,0-1.4.4c-.3.2-.4.4-.4,1.1s.1,1.1.4,1.3a2.1,2.1,0,0,0,1.4.4H150l-.7,2h-3.8a1.4,1.4,0,0,0-1.3.8.8.8,0,0,0-.2.5,1.3,1.3,0,0,0,.1.6,1.8,1.8,0,0,0,.6.9l.9.2h3l-1.2,3.1h-3a2,2,0,0,0-1.4.4,1.6,1.6,0,0,0-.5,1.3c0,.7.2.8.5,1a2,2,0,0,0,1.4.4h18a2.5,2.5,0,0,0,1.6-.5,1.2,1.2,0,0,0,.3-.9c0-.7-.1-1.1-.4-1.3m-6.8-.5H152l1-3h3.7c.2,0,.4.1.4.3Z"/><path class="a56d63f5-d76a-46ca-bffb-4224ac6a0ac1" d="M80.8,88.4H59.4c-2.3,0-2.8,1.3-2.8,2.4v9c0,1.1.5,2.4,2.8,2.4H80.8c2.3,0,2.8-1.3,2.8-2.4v-9c0-1.1-.5-2.4-2.8-2.4M78.9,98.7l-.2.2H61.5l-.2-.2V97a.2.2,0,0,1,.2-.2H78.7l.2.2Zm0-5.3-.2.2H61.5l-.2-.2V91.8l.2-.2H78.7l.2.2Z"/><path class="fd85612d-56b7-41da-b181-d9bca4fadb75" d="M85.6,83.5h-7l1-2.2h4.3a1.3,1.3,0,0,0,1.1-.5h.1a1.7,1.7,0,0,0,.3-1v-.6a1.5,1.5,0,0,0-1.5-1.5H72.2V76.5a1.5,1.5,0,0,0-.7-1.3,2.8,2.8,0,0,0-1.8-.4,3,3,0,0,0-1.9.4,1.6,1.6,0,0,0-.7,1.3v1.2H55.7a1.5,1.5,0,0,0-1.5,1.5v.6a1.5,1.5,0,0,0,1.5,1.5H60l1.1,2.2H53.9A1.5,1.5,0,0,0,52.4,85v.4A1.6,1.6,0,0,0,53.9,87H85.6a1.4,1.4,0,0,0,1.2-.7h.1a1.2,1.2,0,0,0,.2-.8V85a1.5,1.5,0,0,0-1.5-1.5m-11.3,0H66.2l-1.1-2.2H75Z"/><path class="a56d63f5-d76a-46ca-bffb-4224ac6a0ac1" d="M159.4,91.4H148.2q-2.7,0-2.7,2.4V99q0,2.4,2.7,2.4h11.2c1.7,0,2.7-.8,2.7-2.4V93.8c0-1.6-1-2.4-2.7-2.4M157.6,98a.2.2,0,0,1-.2.2h-7.5l-.2-.2V94.6l.2-.2h7.5l.2.2Z"/><path class="fd85612d-56b7-41da-b181-d9bca4fadb75" d="M17.7,87.6l-.3.4-.4.3a2.7,2.7,0,0,1-2.3.2l-.8-.5h0c-.6-.7-.2-1.5.1-2.1a46.7,46.7,0,0,0,4.6-9.6A2.3,2.3,0,0,1,20,74.9h.9a3.1,3.1,0,0,1,1.3.3,2,2,0,0,1,.9,1.6,4.4,4.4,0,0,1-.5,1.5,14.2,14.2,0,0,1-.5,1.6c-.2.4-.3.9-.5,1.3v19.5a1.4,1.4,0,0,1-.9,1.3,3.4,3.4,0,0,1-2,0,1.7,1.7,0,0,1-1-1.3Z"/><path class="fd85612d-56b7-41da-b181-d9bca4fadb75" d="M47.1,97.9H37.4V94.4h7.9a1.3,1.3,0,0,0,1.3-.8h0a1.9,1.9,0,0,0,.2-.7v-.2a1.4,1.4,0,0,0-.2-.6.9.9,0,0,0-.3-.5H46l-.3-.2H37.4v-1c0-.6-.1-1.1-.5-1.3a2.5,2.5,0,0,0-1.7-.4,2.8,2.8,0,0,0-1.8.4,1.5,1.5,0,0,0-.6,1.3v1H25.4a1.6,1.6,0,0,0-.9.3,1.7,1.7,0,0,0-.6,1.2v.2a1.5,1.5,0,0,0,1.5,1.5h7.4v3.4H24.4a1.3,1.3,0,0,0-1.1.5h-.1a1.4,1.4,0,0,0-.3.9v.3a1.5,1.5,0,0,0,1.5,1.5H47.1a1.5,1.5,0,0,0,1.5-1.5v-.3a1.4,1.4,0,0,0-1.5-1.5"/><path class="a56d63f5-d76a-46ca-bffb-4224ac6a0ac1" d="M142.8,76.9a1.8,1.8,0,0,1-1.9,1.5h-8.2a1.5,1.5,0,1,1,0-3h8.2a1.8,1.8,0,0,1,1.9,1.5"/><path class="a56d63f5-d76a-46ca-bffb-4224ac6a0ac1" d="M144.2,81a1.8,1.8,0,0,1-1.9,1.5H131.4a1.7,1.7,0,0,1-1.9-1.5c0-.9.8-1.5,1.9-1.5h10.9a1.7,1.7,0,0,1,1.9,1.5"/><path class="a56d63f5-d76a-46ca-bffb-4224ac6a0ac1" d="M143,84.9a1.8,1.8,0,0,1-1.9,1.5h-8.6a1.5,1.5,0,1,1,0-3h8.6a1.8,1.8,0,0,1,1.9,1.5"/><path class="a56d63f5-d76a-46ca-bffb-4224ac6a0ac1" d="M143,88.9c0,.7-.9,1.4-1.9,1.4h-8.6c-1,0-1.9-.7-1.9-1.4a1.8,1.8,0,0,1,1.9-1.5h8.6a1.8,1.8,0,0,1,1.9,1.5"/><path class="fd85612d-56b7-41da-b181-d9bca4fadb75" d="M140.4,91.6h-6.7c-1.9.1-2.9.8-2.9,2.2v5.5c0,1.4,1,2.1,2.9,2.2h6.7c1.9-.1,2.8-.8,2.9-2.2V93.8c-.1-1.4-1-2.1-2.9-2.2m-1,6.5a.2.2,0,0,1-.2.2h-4.1a.2.2,0,0,1-.2-.2V94.6l.2-.2h4.1a.2.2,0,0,1,.2.2Z"/><path class="fd85612d-56b7-41da-b181-d9bca4fadb75" d="M91.9,80.1a3,3,0,0,0,1.5.4h4.8v.7c0,.8.3,1.1.5,1.2a2.5,2.5,0,0,0,1.7.4,3,3,0,0,0,1.8-.4,1.4,1.4,0,0,0,.5-1.2v-.7H114v.8c0,.6.1.9.5,1.1a2.6,2.6,0,0,0,1.7.5,3,3,0,0,0,1.8-.5,1.3,1.3,0,0,0,.5-1.1v-.8h4.9A2.5,2.5,0,0,0,125,80a2.1,2.1,0,0,0,.4-1.2,1.3,1.3,0,0,0-.6-1.2,2.6,2.6,0,0,0-1.4-.3h-4.9v-1a1.3,1.3,0,0,0-.6-1.2,3.2,3.2,0,0,0-1.7-.3c-.9,0-1.5.1-1.7.4a1.2,1.2,0,0,0-.5,1.1v1H102.7v-1a1.3,1.3,0,0,0-.6-1.2,3.2,3.2,0,0,0-1.7-.3c-.9,0-1.5.1-1.7.4a1.4,1.4,0,0,0-.5,1.1v1H93.4a3.3,3.3,0,0,0-1.5.3,1.7,1.7,0,0,0-.5,1.2,1.6,1.6,0,0,0,.5,1.3"/><path class="fd85612d-56b7-41da-b181-d9bca4fadb75" d="M123.9,98.7h-.3l-3.9-1.3a22.6,22.6,0,0,1-3.5-1.7l-1.7-.9-.8-.5-.7-.5h10.7a2.2,2.2,0,0,0,1.6-.5,1.6,1.6,0,0,0,.4-1.2,1.6,1.6,0,0,0-.6-1.5,2.6,2.6,0,0,0-1.4-.3h-1.1V86.5c0-1.2-.5-2.6-3-2.6h-8.8v-1a1.9,1.9,0,0,0-.8-1.5l-1.5-.2a2.5,2.5,0,0,0-1.6.4,1.5,1.5,0,0,0-.7,1.3v1H97.3c-2.5,0-3,1.4-3,2.6v3.7H93.1a2.4,2.4,0,0,0-1.4.3,1.6,1.6,0,0,0-.6,1.5,1.4,1.4,0,0,0,.6,1.3,2.6,2.6,0,0,0,1.4.4h11.6c-2.4,2.2-5.9,3.8-10.7,4.7l-1.3.4c-.3.1-.8.2-.9.5a1.8,1.8,0,0,0,.1,1.9,2.9,2.9,0,0,0,2.2.9,29,29,0,0,0,4.1-.6c4.7-1.4,8.3-3.6,10.7-6.5l1.6,1.5a27.6,27.6,0,0,0,4.1,2.6l4.5,2.1,1.4.5a5,5,0,0,0,3.6.2c.9-.3,1.8-1.3,1.3-2.2a2.5,2.5,0,0,0-1.5-1M110.8,87.3l.2-.2h6.9c.2,0,.2.1.2.2v2.6h-7.3ZM99,90h-.2V87.3l.2-.2h6.9l.2.2v2.6H99Z"/><path class="fd85612d-56b7-41da-b181-d9bca4fadb75" d="M46.6,84.6H37.5V81.8h7.6a1.5,1.5,0,0,0,1.3-.8h.1a1.3,1.3,0,0,0,.1-.6V80a1.3,1.3,0,0,0-.1-.6l-.4-.5a.1.1,0,0,1-.1-.1H37.5v-1a1.5,1.5,0,0,0-.6-1.3,3.2,3.2,0,0,0-1.7-.4,4,4,0,0,0-1.8.4,1.9,1.9,0,0,0-.5,1.3v1H25.8a1.8,1.8,0,0,0-.9.4,1.7,1.7,0,0,0-.6,1.1v.3a1.5,1.5,0,0,0,1.5,1.5h7.1v2.8H24.4a1.4,1.4,0,0,0-1.1.6h-.1a1.1,1.1,0,0,0-.3.8v.4A1.5,1.5,0,0,0,24.4,88H46.6a1.5,1.5,0,0,0,1.5-1.5v-.4a1.5,1.5,0,0,0-1.5-1.5"/></svg>