<svg id="b3e8c6ca-79e6-42cf-98b5-b755eea47137" data-name="圖層 1" xmlns="http://www.w3.org/2000/svg" width="510.9" height="511" viewBox="0 0 510.9 511"><defs><style>.f47bd9ef-8421-48f9-8afa-96456839e57a{fill:#df051c;}</style></defs><path class="f47bd9ef-8421-48f9-8afa-96456839e57a" d="M509.6,150.2c-1.2-27.1-5.6-45.8-11.9-62A130.5,130.5,0,0,0,423,13.5C406.7,7.2,388.1,2.8,361,1.6S324.9,0,255.6,0,177.5.3,150.2,1.5s-45.8,5.6-62,11.9A125.1,125.1,0,0,0,42.9,42.9,126.2,126.2,0,0,0,13.5,88.1C7.2,104.4,2.8,123,1.6,150.1S0,186.2,0,255.6s.3,78,1.5,105.3,5.6,45.8,11.9,62a130.5,130.5,0,0,0,74.7,74.7c16.3,6.3,34.9,10.7,62,11.9s36,1.5,105.4,1.5,78-.3,105.3-1.5,45.8-5.6,62-11.9a130.8,130.8,0,0,0,74.7-74.7c6.3-16.3,10.7-34.9,11.9-62s1.5-36,1.5-105.3-.1-78.1-1.3-105.4Zm-46,208.7c-1.1,24.9-5.3,38.4-8.8,47.4a85.1,85.1,0,0,1-48.5,48.5c-9,3.5-22.6,7.7-47.4,8.8-27,1.2-35.1,1.5-103.2,1.5s-76.4-.3-103.3-1.5c-24.9-1.1-38.4-5.3-47.4-8.8a78.4,78.4,0,0,1-29.3-19.1,79.2,79.2,0,0,1-19.1-29.3c-3.5-9-7.7-22.6-8.8-47.4-1.2-27-1.5-35.1-1.5-103.2s.3-76.4,1.5-103.3c1.1-24.9,5.3-38.4,8.8-47.4A77.4,77.4,0,0,1,75.8,75.8a79.2,79.2,0,0,1,29.3-19.1c9-3.5,22.6-7.7,47.4-8.8,27-1.2,35.1-1.5,103.2-1.5s76.4.3,103.3,1.5c24.9,1.1,38.4,5.3,47.4,8.8a78.4,78.4,0,0,1,29.3,19.1,79.2,79.2,0,0,1,19.1,29.3c3.5,9,7.7,22.6,8.8,47.4,1.2,27,1.5,35.1,1.5,103.3s-.3,76.1-1.5,103.1Zm0,0"/><path class="f47bd9ef-8421-48f9-8afa-96456839e57a" d="M255.6,124.3A131.3,131.3,0,1,0,386.8,255.6,131.3,131.3,0,0,0,255.6,124.3Zm0,216.4a85.2,85.2,0,1,1,85.1-85.1,85.1,85.1,0,0,1-85.1,85.1Zm0,0"/><path class="f47bd9ef-8421-48f9-8afa-96456839e57a" d="M422.7,119.1A30.7,30.7,0,1,1,392,88.4a30.7,30.7,0,0,1,30.7,30.7Zm0,0"/></svg>