<svg id="ba36de49-af0a-4789-b309-b91225294521" data-name="圖層 1" xmlns="http://www.w3.org/2000/svg" width="190.9" height="141" viewBox="0 0 190.9 141"><defs><style>.bd63d62b-81aa-4b94-90fe-eccfd2bcd8ed{fill:#fff;}</style></defs><path class="bd63d62b-81aa-4b94-90fe-eccfd2bcd8ed" d="M-192.1,168.3a12.6,12.6,0,0,0,10,5.7h.3l2-4.4c0-.2-.1-.4-.3-.4h-1.2a8,8,0,0,1-6.6-3.5,7.4,7.4,0,0,1-.5-7.2l21.5-47.9v-.3l-3.2-3.8c-.1-.2-.4-.1-.5.1L-193,156.3A12.8,12.8,0,0,0-192.1,168.3Z" transform="translate(210.3 -73)"/><path class="bd63d62b-81aa-4b94-90fe-eccfd2bcd8ed" d="M-176,183l43-95.3c.1-.2,0-.4-.2-.4h-4.9c-.1,0-.2,0-.2.1L-181.5,183h-2.4a21.5,21.5,0,0,1-17.4-8.6,20.8,20.8,0,0,1-2.2-21.2l24.4-53.4c.1-.2-.1-.4-.3-.4h-4.9l-.2.2-23.3,51a26.5,26.5,0,0,0,1,24.5A26,26,0,0,0-184.4,188h.6l-11.5,25.6a.3.3,0,0,0,.2.4h4.9l.2-.2Z" transform="translate(210.3 -73)"/><path class="bd63d62b-81aa-4b94-90fe-eccfd2bcd8ed" d="M-155.9,210.3h-3.7v-.7l3.5-4.8h1.1v4.7h1v.8h-1v1.6h-.9Zm0-.8v-3.8l-2.7,3.8Z" transform="translate(210.3 -73)"/><path class="bd63d62b-81aa-4b94-90fe-eccfd2bcd8ed" d="M-147.4,204.6c2,0,2.6,1.6,2.6,3.6s-.6,3.7-2.6,3.7-2.5-1.6-2.5-3.7S-149.4,204.6-147.4,204.6Zm0,.8c-1.4,0-1.6,1.3-1.6,2.8s.2,2.9,1.6,2.9,1.7-1.3,1.7-2.9S-145.9,205.4-147.4,205.4Z" transform="translate(210.3 -73)"/><path class="bd63d62b-81aa-4b94-90fe-eccfd2bcd8ed" d="M-140,207.2h-.7v-.8h.7v-1.3h.9v1.3h1.4v.8h-1.4v3.2c0,.6.2.8.7.8h.7v.7h-.8c-1,0-1.5-.4-1.5-1.5Z" transform="translate(210.3 -73)"/><path class="bd63d62b-81aa-4b94-90fe-eccfd2bcd8ed" d="M-133.4,204.5h.9v2.7a2.4,2.4,0,0,1,1.8-.9,2.1,2.1,0,0,1,2.2,2.4v3.2h-.9v-3.1c0-1.1-.6-1.7-1.5-1.7a1.6,1.6,0,0,0-1.6,1.8v3h-.9Z" transform="translate(210.3 -73)"/><path class="bd63d62b-81aa-4b94-90fe-eccfd2bcd8ed" d="M-116.6,210.4h-3.1l-.5,1.5h-1l2.5-6.9h1.1l2.5,6.9h-1Zm-1.6-4.3-1.2,3.5h2.5Z" transform="translate(210.3 -73)"/><path class="bd63d62b-81aa-4b94-90fe-eccfd2bcd8ed" d="M-105.3,204.9v7h-.9l-3.7-5.5v5.5h-.9v-7h.9l3.7,5.6v-5.6Z" transform="translate(210.3 -73)"/><path class="bd63d62b-81aa-4b94-90fe-eccfd2bcd8ed" d="M-95.1,204.9v7H-96l-3.6-5.5v5.5h-.9v-7h.9l3.6,5.6v-5.6Z" transform="translate(210.3 -73)"/><path class="bd63d62b-81aa-4b94-90fe-eccfd2bcd8ed" d="M-90.3,205h.9v6.9h-.9Z" transform="translate(210.3 -73)"/><path class="bd63d62b-81aa-4b94-90fe-eccfd2bcd8ed" d="M-79.8,205h.9l-2.6,6.9h-1l-2.7-6.9h1l2.2,6Z" transform="translate(210.3 -73)"/><path class="bd63d62b-81aa-4b94-90fe-eccfd2bcd8ed" d="M-70.9,205.7h-2.8V208h2.5v.8h-2.5v2.4h2.8v.7h-3.7v-7h3.7Z" transform="translate(210.3 -73)"/><path class="bd63d62b-81aa-4b94-90fe-eccfd2bcd8ed" d="M-64,205c1.6,0,2.4.9,2.4,2a2,2,0,0,1-1.7,2l1.8,2.9h-1.1l-1.7-2.8h-1.1v2.8h-.9V205Zm0,.7h-1.4v2.6H-64c1,0,1.4-.5,1.4-1.3S-63,205.7-64,205.7Z" transform="translate(210.3 -73)"/><path class="bd63d62b-81aa-4b94-90fe-eccfd2bcd8ed" d="M-54.8,212c-1.4,0-2.4-.8-2.4-1.9h1a1.3,1.3,0,0,0,1.4,1.1c.9,0,1.4-.5,1.4-1.1s-3.7-.7-3.7-3.3.9-1.9,2.3-1.9a2.1,2.1,0,0,1,2.3,1.8h-1a1.4,1.4,0,0,0-1.4-1.1,1.2,1.2,0,0,0-1.3,1.2c0,1.8,3.7.6,3.7,3.2A2.1,2.1,0,0,1-54.8,212Z" transform="translate(210.3 -73)"/><path class="bd63d62b-81aa-4b94-90fe-eccfd2bcd8ed" d="M-43.8,210.4h-3l-.6,1.5h-.9l2.5-6.9h1l2.5,6.9h-.9Zm-1.5-4.3-1.3,3.5H-44Z" transform="translate(210.3 -73)"/><path class="bd63d62b-81aa-4b94-90fe-eccfd2bcd8ed" d="M-35.7,205c1.6,0,2.4.9,2.4,2a2,2,0,0,1-1.6,2l1.7,2.9h-1.1l-1.6-2.8H-37v2.8h-.9V205Zm0,.7H-37v2.6h1.3c1,0,1.5-.5,1.5-1.3S-34.7,205.7-35.7,205.7Z" transform="translate(210.3 -73)"/><path class="bd63d62b-81aa-4b94-90fe-eccfd2bcd8ed" d="M-29.2,205h1l1.7,3.5,1.7-3.5h1l-2.2,4.3v2.6h-.9v-2.6Z" transform="translate(210.3 -73)"/><path class="bd63d62b-81aa-4b94-90fe-eccfd2bcd8ed" d="M-149.3,73.1c-.2-.2-.5,0-.7.1l-.5.2h0l-14.9,8.7-13.4,7.7c-.3.1-.7.2-.6.6s.5.2.8.1l6.5-.9a1.3,1.3,0,0,1,1.4.5l7.3,9.6c.7,1,.9.9,1.4-.1,1.8-3.8,3.6-7.6,5.5-11.3s4.7-9.7,7.1-14.5C-149.3,73.6-149.1,73.3-149.3,73.1ZM-165,96.6l-5.1-6.7c-.4-.5-.4-.8.2-1.2l2-1.5,12-9-9.3,7.6-2.8,2.3c-1,.8-1,.8-.4,1.9s2.3,4.4,3.5,6.5Zm2.4,2.7c-.3-.1-.3-.3-.4-.4-1.5-3-3.1-5.9-4.7-8.8-.3-.7-.3-.9.5-.9l7.7-.5a1.3,1.3,0,0,0,1.3-.8c1.4-2.3,2.8-4.5,4.4-6.7C-156.7,87.2-159.6,93.3-162.6,99.3Z" transform="translate(210.3 -73)"/><path class="bd63d62b-81aa-4b94-90fe-eccfd2bcd8ed" d="M-48.2,180.7c0-5,3.3-11.5,7.8-11.5h1.3c2.3.6,2.9,2.8,2.9,5a12.5,12.5,0,0,1-.6,4,4.7,4.7,0,0,0,4.2-2.4c.1-.2.2-.2.4-.2h.3c.1,0,.1.2.1.3v.3a5.8,5.8,0,0,1-4.9,2.9h-.4c-1.1,3.1-3.4,6.9-6.8,6.9S-48.2,183.8-48.2,180.7Zm9-2.2a2.5,2.5,0,0,1-1.1-2.2,3.4,3.4,0,0,1,1.8-3.1c-.2-.6-.5-1.1-1.1-1.1h-.2c-2.3.4-4.9,7-4.9,10.4,0,1.3.3,2.1,1,2.2h.2C-41.7,184.7-39.8,180-39.2,178.5Z" transform="translate(210.3 -73)"/><path class="bd63d62b-81aa-4b94-90fe-eccfd2bcd8ed" d="M-32.8,195.4a3.1,3.1,0,0,1-3.1-3.2V192a.5.5,0,0,1,.4-.5h.1c.2,0,.5.2.5.4a1.3,1.3,0,0,0,1.4,1.3h.1c3.7,0,5.6-8.3,6.4-11.2-1.2,2.1-2.8,4.2-4.1,4.3h-.6c-1.2,0-2.5-.1-3-1.1a4,4,0,0,1-.4-2c0-3.9,2.6-11.1,3.7-13.4.2-.4.6-.5,1.2-.5s2.6.6,2.6,1.4v.2c-.4,1.1-3.9,10.7-3.9,13.6q0,.9.3.9c.6-.1,1.5-.8,2.7-2.8a36.6,36.6,0,0,0,3.4-7.5c.6-1.7,1.1-3.5,1.7-5.2s.7-.6,1.4-.6,2.6.5,2.6,1.3v.2c-.6,1.5-1.2,3.7-1.9,5.9s-2.5,8.2-3.7,11.3-3.4,7.4-7.5,7.4Z" transform="translate(210.3 -73)"/><path class="bd63d62b-81aa-4b94-90fe-eccfd2bcd8ed" d="M-128.9,165.7h5.1c.2,0,.3-.3.2-.5a35.5,35.5,0,0,1-4.7-17.8,35.7,35.7,0,0,1,35.5-35.9,36.1,36.1,0,0,1,36.3,35.9,35.2,35.2,0,0,1-1.4,9.8,13.3,13.3,0,0,1,5.9-3.4,44.8,44.8,0,0,0,.5-6.4,41.2,41.2,0,0,0-41.3-40.9c-22.3,0-40.5,18.4-40.5,40.9a40.8,40.8,0,0,0,4.2,18.1Z" transform="translate(210.3 -73)"/><path class="bd63d62b-81aa-4b94-90fe-eccfd2bcd8ed" d="M-174.2,213.7l11.6-25.7,70.2.2a43.7,43.7,0,0,0,10.8-1.3,41.2,41.2,0,0,0,21.3-14.2c1.1-1.4,2-2.8,2.9-4.2,3.5-6,4.5-7.4,5.1-8a1.8,1.8,0,0,1,.9-.6h.6a1.5,1.5,0,0,1,.9.6c.7,1.1-.4,6.3-1.4,9.1a21.9,21.9,0,0,0-6.6,6.6c-2.2,3.1-3.6,6.4-3.6,8.1v.3a3.6,3.6,0,0,0,2.2,2.8l1.8.3h.7c4.5-1.5,8.1-11.1,9.5-15.7a33.1,33.1,0,0,0,1.8-9.4,6.4,6.4,0,0,0-.5-2.4,7.3,7.3,0,0,0-1.6-2.1,6.7,6.7,0,0,0-3.6-1.4c-2.4-.1-4.2,1.2-5.9,2.9a42.4,42.4,0,0,0-4.6,6.5,37,37,0,0,1-16.4,14.4,36.8,36.8,0,0,1-14.3,2.8l-67.9-.2,4.1-9.1c8.7,0,58.5.3,62.2.2a36.7,36.7,0,0,0,10.9-1.9,23.7,23.7,0,0,0,7.7-4.4,26.9,26.9,0,0,0,8.8-14,27.4,27.4,0,0,0,.8-6.4c0-14.6-12.1-26.5-27-26.5A26.4,26.4,0,0,0-119,147.4a26.5,26.5,0,0,0,7.2,18.2h6.8a.3.3,0,0,0,.2-.6,21.4,21.4,0,0,1-9.2-17.7c0-12.1,9.3-21.6,21.2-21.6a21.9,21.9,0,0,1,22,21.6,21.9,21.9,0,0,1-6.5,15.5c-4.7,4.5-10.9,6.2-17.2,6.3-3.7.1-59.6-.1-59.6-.1l32.4-71.7a.2.2,0,0,0,0-.3l-3.1-3.8c-.2-.2-.4-.2-.5,0l-54.3,120.2c-.1.2.1.4.3.4h4.8Zm115.4-27.8H-59a.7.7,0,0,1-.1-.5c0-2.6,6-12,7.1-13.3C-52.5,173.4-56.9,185.9-58.8,185.9Z" transform="translate(210.3 -73)"/></svg>