<svg id="b082434a-c1e1-4006-9daa-76c058ab158a" data-name="圖層 6" xmlns="http://www.w3.org/2000/svg" width="385.8" height="117.6" viewBox="0 0 385.8 117.6"><defs><style>.b13203ee-9d76-41bc-8b40-54b4a8877e8a,.b4b9f520-1727-42b2-a18c-a67d58039f64,.e2e479ae-4d98-49ed-a540-4b6b944e37aa{fill:#de051b;}.b4b9f520-1727-42b2-a18c-a67d58039f64{fill-rule:evenodd;}.b13203ee-9d76-41bc-8b40-54b4a8877e8a{stroke:#de051b;stroke-miterlimit:10;stroke-width:0.25px;}</style></defs><path class="b4b9f520-1727-42b2-a18c-a67d58039f64" d="M64.6,23.2l-.2.5a6.5,6.5,0,0,1-3,3.1,6.6,6.6,0,0,1-4.6.2h-.2l-1.4-.6-1.8-1h-.1l-2.2-1a33.5,33.5,0,0,1-.1,5.5,33.4,33.4,0,0,1-1.9,9.2h0a23.1,23.1,0,0,1-4.8,8.4,20,20,0,0,1-7.5,5.4h-.1a27.1,27.1,0,0,1-9.8,1.9,29.3,29.3,0,0,1-10.3-1.7h0A25,25,0,0,1,9.2,49a29.5,29.5,0,0,1-6-6.2h0A19.7,19.7,0,0,1,.6,38.3a7,7,0,0,1-.3-4.9,5.1,5.1,0,0,1,3.2-3.2,5.8,5.8,0,0,1,4.3.1,4.8,4.8,0,0,1,2.6,1.9,10.4,10.4,0,0,1,1.5,2.2h0a13.5,13.5,0,0,0,3.7,4.8,17.7,17.7,0,0,0,5.6,3.1,16.3,16.3,0,0,0,5.2.9,16.1,16.1,0,0,0,4.8-.8h0A8.8,8.8,0,0,0,34.8,40a15.5,15.5,0,0,0,2.9-5.1h0A25.1,25.1,0,0,0,39,27.6a56,56,0,0,0-.3-8L28.4,16.2l-9-2.7h0l-3.6-.9-2-.4-.9-.3A6.2,6.2,0,0,1,9.5,9a5.6,5.6,0,0,1-.1-4.4h0a5.4,5.4,0,0,1,3.1-3.2,6.3,6.3,0,0,1,4.3-.1h0c4.3,1.1,8.6,2.3,12.8,3.6s8.8,2.7,13,4.1L53,12.7l6.5,2.7h0a14,14,0,0,1,3.9,2.8,5.2,5.2,0,0,1,1.2,5Z"/><path class="b4b9f520-1727-42b2-a18c-a67d58039f64" d="M69.9,23.9a16.9,16.9,0,0,1,17.7-.8L83,45c-2,5.7-6.8,6.1-7.2,6.1a8.8,8.8,0,0,0,2.2-1,8.6,8.6,0,1,0-11.9-2.4l1.2,1.5c1,1.1,3.7,3.8,9.4,3.6s9.5-7.4,9.5-7.4l4.3-20.3a15.3,15.3,0,0,1,3.2,3.5,17.1,17.1,0,1,1-23.8-4.7Z"/><path class="b4b9f520-1727-42b2-a18c-a67d58039f64" d="M154,26.5a32.8,32.8,0,0,1-16.7,16.9h0a28.3,28.3,0,0,1-11.1,2.7,23.9,23.9,0,0,1-7.5-.7,3.5,3.5,0,0,0-.3,1.3,12.6,12.6,0,0,0-.3,2.1v.3c0,.6-.1,1.2-.1,1.6s-.2,1.1-.3,1.5l-.3.6a5,5,0,0,1-3.3,2.7,6.4,6.4,0,0,1-4.7-.3h-.3a7.2,7.2,0,0,1-3.7-4.5,12.1,12.1,0,0,1-.1-5.4h0a20.3,20.3,0,0,1,.8-3.1l.6-2a24.3,24.3,0,0,1-4.9-4.7,22.7,22.7,0,0,1-4.2-8h0a29.2,29.2,0,0,1-.8-11.1,40.3,40.3,0,0,1,3.5-11.8A8.5,8.5,0,0,1,103.2.9a5.9,5.9,0,0,1,5.6-.4,5.8,5.8,0,0,1,3.7,3.8,6.1,6.1,0,0,1-.5,4.3,32.6,32.6,0,0,0-2.7,8.8,20.4,20.4,0,0,0,.3,7.8h0a11.8,11.8,0,0,0,2.5,5,13,13,0,0,0,4.8,3.2,19.3,19.3,0,0,0,7.3,1.4,15.9,15.9,0,0,0,7-1.6h.1a18.7,18.7,0,0,0,6.4-4.5,31.5,31.5,0,0,0,5.1-7.6h0a6.9,6.9,0,0,1,2.7-3.1,6.5,6.5,0,0,1,9.2,3.8,6.5,6.5,0,0,1-.7,4.8Z"/><path class="e2e479ae-4d98-49ed-a540-4b6b944e37aa" d="M385.2,34.3a3.3,3.3,0,0,0-2.1-.6h-1.4V28.9a4.5,4.5,0,0,0-1-3.3c-.7-.7-1.6-1-3.5-1h-6.8l1-2.9h10.5a2.8,2.8,0,0,0,2.3-.8,2.6,2.6,0,0,0,.5-1.7c0-1-.2-1.3-.6-1.6a3.4,3.4,0,0,0-2.2-.6H359a2.9,2.9,0,0,0-2.1.6c-.5.3-.7.6-.7,1.6a2.1,2.1,0,0,0,.7,1.9,3.3,3.3,0,0,0,2.1.6h5.9l-1,2.9h-5.6a2.1,2.1,0,0,0-1.9,1.2,1.1,1.1,0,0,0-.2.8,2.5,2.5,0,0,0,.1.8,2.4,2.4,0,0,0,.9,1.3l1.3.3h4.3l-1.7,4.6h-4.3a4.2,4.2,0,0,0-2.2.5,2.7,2.7,0,0,0-.6,2,1.6,1.6,0,0,0,.6,1.5,3.4,3.4,0,0,0,2.2.5h26.3a2.9,2.9,0,0,0,2.2-.7,1.7,1.7,0,0,0,.5-1.3c0-1-.2-1.6-.6-1.9m-10-.7h-7.4l1.5-4.5h5.3c.4,0,.6.2.6.5Z"/><path class="e2e479ae-4d98-49ed-a540-4b6b944e37aa" d="M263.7,35.8H232.5c-3.4,0-4.1,2-4.1,3.6V52.5c0,1.7.7,3.6,4.1,3.6h31.2c3.5,0,4.2-1.9,4.2-3.6V39.4c0-1.6-.7-3.6-4.2-3.6M261,50.9a.3.3,0,0,1-.3.3H235.5c-.1,0-.2-.1-.2-.3V48.5c0-.2.1-.3.2-.3h25.2a.3.3,0,0,1,.3.3Zm0-7.7a.3.3,0,0,1-.3.3H235.5c-.1,0-.2-.2-.2-.3V40.8c0-.2.1-.3.2-.3h25.2a.3.3,0,0,1,.3.3Z"/><path class="b4b9f520-1727-42b2-a18c-a67d58039f64" d="M270.9,28.7H260.6l1.5-3.1h6.3a2.1,2.1,0,0,0,1.6-.8h0a.1.1,0,0,1,.1-.1,2.1,2.1,0,0,0,.5-1.3v-.9a2.2,2.2,0,0,0-2.2-2.2H251.3V18.6a2.4,2.4,0,0,0-1.1-2,4.5,4.5,0,0,0-2.6-.6,4.6,4.6,0,0,0-2.8.6,2.5,2.5,0,0,0-1,2v1.7H227.2a2.2,2.2,0,0,0-2.2,2.2v.9a2.2,2.2,0,0,0,2.2,2.2h6.2l1.6,3.1H224.5a2.2,2.2,0,0,0-2.2,2.2v.6a2.2,2.2,0,0,0,2.2,2.3h46.4a2.1,2.1,0,0,0,1.7-1c.1-.1.1-.1.1-.2a2.1,2.1,0,0,0,.4-1.1v-.6a2.2,2.2,0,0,0-2.2-2.2m-16.6,0H242.4l-1.6-3.1h14.6Z"/><path class="e2e479ae-4d98-49ed-a540-4b6b944e37aa" d="M378.6,40.3H362.2c-2.6,0-3.9,1.2-3.9,3.5v7.6c0,2.3,1.3,3.5,3.9,3.5h16.4c2.6,0,3.9-1.2,3.9-3.5V43.8c0-2.3-1.3-3.5-3.9-3.5M375.9,50a.2.2,0,0,1-.2.2h-11c-.2,0-.3-.1-.3-.2V45a.3.3,0,0,1,.3-.3h11c.1,0,.2.1.2.3Z"/><path class="b4b9f520-1727-42b2-a18c-a67d58039f64" d="M171.6,34.7c.1.1-.4.5-.4.5l-.6.5a4.1,4.1,0,0,1-3.4.3,2.8,2.8,0,0,1-1.1-.8H166c-.8-.9-.3-2.1.3-3a81.1,81.1,0,0,0,6.7-14,3.3,3.3,0,0,1,2-2h1.2a4.1,4.1,0,0,1,1.9.5,2.4,2.4,0,0,1,1.4,2.3,5.2,5.2,0,0,1-.7,2.1,22.5,22.5,0,0,1-.8,2.4l-.6,1.9V53.7a2.6,2.6,0,0,1-1.4,1.9,4.8,4.8,0,0,1-2.9,0,2.5,2.5,0,0,1-1.5-1.9Z"/><path class="b4b9f520-1727-42b2-a18c-a67d58039f64" d="M214.6,49.7H200.4v-5h11.5a2.1,2.1,0,0,0,1.9-1.2.1.1,0,0,1,.1-.1,2.9,2.9,0,0,0,.2-.9v-.4a2.9,2.9,0,0,0-.2-.9l-.5-.7h-.3c0-.1-.1-.1-.2-.2l-.4-.2H200.4V38.5a2.2,2.2,0,0,0-.7-1.9,4.3,4.3,0,0,0-2.6-.6,4.9,4.9,0,0,0-2.5.5,2.5,2.5,0,0,0-.9,2v1.4H182.9a2.1,2.1,0,0,0-1.3.5,2.2,2.2,0,0,0-.9,1.7v.4a2.2,2.2,0,0,0,2.2,2.2h10.8v5H181.4a2.1,2.1,0,0,0-1.7.8.3.3,0,0,1-.1.2,2.1,2.1,0,0,0-.4,1.2v.4a2.2,2.2,0,0,0,2.2,2.3h33.2a2.2,2.2,0,0,0,2.2-2.3v-.4a2.2,2.2,0,0,0-2.2-2.2"/><path class="e2e479ae-4d98-49ed-a540-4b6b944e37aa" d="M354.3,19.1a2.5,2.5,0,0,1-2.7,2.2H339.7c-1.6,0-2.8-1-2.8-2.2a2.5,2.5,0,0,1,2.8-2.3h11.9a2.5,2.5,0,0,1,2.7,2.3"/><path class="e2e479ae-4d98-49ed-a540-4b6b944e37aa" d="M356.4,25c0,1.2-1.3,2.2-2.8,2.2H337.7c-1.6,0-2.8-1-2.8-2.2s1.2-2.2,2.8-2.2h15.9c1.5,0,2.8,1,2.8,2.2"/><path class="e2e479ae-4d98-49ed-a540-4b6b944e37aa" d="M354.6,30.8a2.5,2.5,0,0,1-2.7,2.1H339.4c-1.5,0-2.8-1-2.8-2.1s1.3-2.2,2.8-2.2h12.5a2.5,2.5,0,0,1,2.7,2.2"/><path class="e2e479ae-4d98-49ed-a540-4b6b944e37aa" d="M354.7,36.5c0,1.2-1.3,2.1-2.8,2.1H339.3c-1.5,0-2.7-.9-2.7-2.1s1.2-2,2.7-2h12.6c1.5,0,2.8.9,2.8,2"/><path class="b4b9f520-1727-42b2-a18c-a67d58039f64" d="M350.9,40.6H341c-2.7,0-4.1,1.1-4.2,3.2v8c.1,2,1.5,3.1,4.2,3.2h9.9c2.7-.1,4.1-1.2,4.2-3.2v-8c-.1-2.1-1.5-3.2-4.2-3.2m-1.5,9.5c0,.1-.1.3-.2.3h-6.1c-.1,0-.2-.2-.2-.3V45c0-.2.1-.3.2-.3h6.1c.1,0,.2.1.2.3Z"/><path class="b4b9f520-1727-42b2-a18c-a67d58039f64" d="M280.1,23.7a3.1,3.1,0,0,0,2.1.6h7v1.1a1.8,1.8,0,0,0,.8,1.7,5.5,5.5,0,0,0,5,0,1.7,1.7,0,0,0,.8-1.7V24.3h16.4v1.2a1.8,1.8,0,0,0,.9,1.7,4,4,0,0,0,2.5.6,4.4,4.4,0,0,0,2.5-.6,2,2,0,0,0,.8-1.7V24.3H326a3.2,3.2,0,0,0,2.3-.8,2.2,2.2,0,0,0,.6-1.7,1.9,1.9,0,0,0-.8-1.7,4.1,4.1,0,0,0-2.1-.5h-7.1V18.2a1.8,1.8,0,0,0-.9-1.7,3.5,3.5,0,0,0-2.4-.6,3.7,3.7,0,0,0-2.6.7,1.9,1.9,0,0,0-.8,1.6v1.4H295.8V18.2a1.8,1.8,0,0,0-.9-1.7,3.5,3.5,0,0,0-2.4-.6,3.8,3.8,0,0,0-2.6.7,2.2,2.2,0,0,0-.7,1.6v1.4h-7a4.1,4.1,0,0,0-2.1.5,1.9,1.9,0,0,0-.8,1.7c0,.9.3,1.7.8,1.9"/><path class="b4b9f520-1727-42b2-a18c-a67d58039f64" d="M326.7,50.9l-.4-.2c-1.9-.6-3.8-1.1-5.7-1.8s-3.5-1.5-5.2-2.4L313,45.1l-1.1-.8a8.6,8.6,0,0,0-1-.7h15.6a2.9,2.9,0,0,0,2.3-.8,2.1,2.1,0,0,0,.6-1.7,2.3,2.3,0,0,0-.9-2.1,3.2,3.2,0,0,0-2-.6h-1.6V33.1c0-1.8-.8-3.8-4.4-3.8H307.6V27.8a2.6,2.6,0,0,0-1.1-2.1,6.7,6.7,0,0,0-2.2-.4,4.3,4.3,0,0,0-2.4.6,2.2,2.2,0,0,0-1,1.9v1.5h-13c-3.6,0-4.4,2-4.4,3.8v5.3h-1.8a3.4,3.4,0,0,0-2,.5,2.5,2.5,0,0,0-.9,2.2,1.9,1.9,0,0,0,.9,1.9,3.2,3.2,0,0,0,2,.6h17.1c-3.5,3.3-8.8,5.5-15.7,6.9l-1.9.5a3.9,3.9,0,0,0-1.4.8,2.8,2.8,0,0,0,.3,2.8,3.9,3.9,0,0,0,3.1,1.3l6.1-.9c6.8-2,12-5.2,15.6-9.5l2.3,2.2a45.6,45.6,0,0,0,6,3.8c2.2,1.1,4.4,2.2,6.6,3.1l2,.7a8.1,8.1,0,0,0,5.3.4c1.2-.5,2.5-2,1.8-3.3a3.8,3.8,0,0,0-2.2-1.5M307.6,34.3a.3.3,0,0,1,.3-.3h10.2c.1,0,.2.1.2.3V38c0,.2-.1.3-.2.3H307.9a.3.3,0,0,1-.3-.3Zm-17.3,4c-.1,0-.2-.1-.2-.3V34.3c0-.2.1-.3.2-.3h10.2a.3.3,0,0,1,.3.3V38a.3.3,0,0,1-.3.3Z"/><path class="b4b9f520-1727-42b2-a18c-a67d58039f64" d="M213.8,30.4H200.5V26.2h11.2a2.2,2.2,0,0,0,1.9-1.2h0a1.2,1.2,0,0,0,.3-.9v-.3a2.9,2.9,0,0,0-.2-.9,2.2,2.2,0,0,0-.6-.7l-.2-.2h-.2l-.4-.2H200.5V20a2.3,2.3,0,0,0-.8-1.9,4,4,0,0,0-2.5-.6,4.3,4.3,0,0,0-2.6.6,2.4,2.4,0,0,0-.8,1.9v1.5H183.5a2.1,2.1,0,0,0-1.3.5,2.2,2.2,0,0,0-.9,1.7V24a2.2,2.2,0,0,0,2.2,2.2h10.3v4.2H181.4a2.1,2.1,0,0,0-1.6.8.1.1,0,0,0-.1.1,2.1,2.1,0,0,0-.5,1.3V33a2.2,2.2,0,0,0,2.2,2.3h32.4A2.2,2.2,0,0,0,216,33v-.4a2.2,2.2,0,0,0-2.2-2.2"/><path class="b13203ee-9d76-41bc-8b40-54b4a8877e8a" d="M67.5,110.7a12.5,12.5,0,0,1-.5,3.6,4.3,4.3,0,0,1-1.4,2.1,7.6,7.6,0,0,1-1.8.6H59.2a2.3,2.3,0,0,1-1.3-.3,1.2,1.2,0,0,1-.3-.9,1.7,1.7,0,0,1,.3-1,1.2,1.2,0,0,1,.9-.3h2.7l2-.2c.7-.1,1.1-1,1.3-2.8a.8.8,0,0,0-.2-.6c-.1-.2-.4-.2-.7-.2H54.2a8.7,8.7,0,0,1-1.9,2.8,9.2,9.2,0,0,1-3.1,2,17.9,17.9,0,0,1-7.6,1.6,1.3,1.3,0,0,1-1-.3,1.5,1.5,0,0,1,0-1.8,1.6,1.6,0,0,1,1.1-.3,21.2,21.2,0,0,0,6.4-1.3,6.6,6.6,0,0,0,3.3-2.7H42.1a1,1,0,0,1-1.1-1.1c0-.7.4-1,1.1-1H52l.2-1a1.1,1.1,0,0,1,1.2-1,1.3,1.3,0,0,1,1,.3,1.1,1.1,0,0,1,.3,1.1v.6H65.1C66.7,108.8,67.5,109.4,67.5,110.7ZM42.7,91.6a1.3,1.3,0,0,1-.2-.8c0-.7.4-1.1,1.2-1.1H63.9a1.4,1.4,0,0,1,1.1.4.8.8,0,0,1,.4.8.7.7,0,0,1-.2.6,1.7,1.7,0,0,1-.6.6,55.6,55.6,0,0,1-6.4,2.8l.4.3c.1.1.1.2.2.4h5.4c1.5,0,2.3.7,2.3,2.1v8.8c0,.9-.4,1.3-1.2,1.3s-1.3-.4-1.3-1.3v-1.5H55.8v.6a1,1,0,0,1-.3.8,1.5,1.5,0,0,1-1.8,0,1,1,0,0,1-.3-.8v-.6H45.6v1.5a1.1,1.1,0,0,1-1.3,1.3c-.8,0-1.2-.4-1.2-1.3V97.8c0-1.4.8-2.1,2.3-2.1h8.9L49,94.4c-.7-.1-1-.5-1-.9s.3-1.1.8-1.1h.4a46.8,46.8,0,0,1,5,1.1l1.6.4,3.3-1.3.6-.3q.3-.2.3-.3c0-.1-.1-.2-.4-.2H43.7A1.5,1.5,0,0,1,42.7,91.6Zm2.9,7v1h7.8V97.8H46.5C45.9,97.8,45.6,98.1,45.6,98.6Zm0,4.6h7.8v-1.7H45.6Zm17.5-5.4H55.8v1.8H64v-1C64,98.1,63.7,97.8,63.1,97.8Zm-7.3,5.4H64v-1.7H55.8Z"/><path class="b13203ee-9d76-41bc-8b40-54b4a8877e8a" d="M95.2,116.1v-4.4l-8,2.1a2.6,2.6,0,0,1-1.1.2c-.8,0-1.2-.4-1.2-1.4s.5-1.3,1.5-1.4h.8V97.6H86.1c-.8,0-1.2-.4-1.2-1.1a1.1,1.1,0,0,1,1.2-1.2h5.1V92.5H87.6c-.9,0-1.4-.4-1.4-1.2a1,1,0,0,1,.4-.8,1.5,1.5,0,0,1,1-.3h9.8a1.5,1.5,0,0,1,1,.3,1,1,0,0,1,.4.8c0,.8-.5,1.2-1.4,1.2H93.7v2.8H99c.8,0,1.3.4,1.3,1.2s-.5,1.1-1.3,1.1H97.6v18.5c0,.9-.4,1.3-1.2,1.3S95.2,117,95.2,116.1Zm0-15.9V97.6H89.6v2.6Zm0,4.8v-2.7H89.6V105Zm0,4.5v-2.4H89.6v3.5Zm3.1,6.4c0-.6.3-1,1-1.4a13.7,13.7,0,0,0,5.1-3.7c-1.5-2.3-2.4-5.9-2.7-10.9-1.2,2-2,2.9-2.4,2.9s-1.1-.4-1.1-1.2a4.6,4.6,0,0,1,.8-1.7,25.5,25.5,0,0,0,4-9.6c.2-.9.6-1.3,1.3-1.3a1.3,1.3,0,0,1,1,.3c.2.1.3.4.3.8a18.9,18.9,0,0,1-1.6,5h8.1c.8,0,1.2.4,1.2,1.3a1.1,1.1,0,0,1-1.2,1.2h-1.4a54.8,54.8,0,0,1-.9,7.6,18.4,18.4,0,0,1-2.3,5.6,15.8,15.8,0,0,0,4.7,3.4c.8.4,1.1.9,1.1,1.4a1.2,1.2,0,0,1-.5,1.1c-.3.3-.5.4-.7.4s-1.5-.5-2.9-1.5a25.3,25.3,0,0,1-3.2-2.8,21.2,21.2,0,0,1-3.6,3,6.5,6.5,0,0,1-2.9,1.4C98.7,117.2,98.3,116.8,98.3,115.9Zm9.9-18.3h-4.6c.2,5.1,1,8.8,2.3,11.1C107.3,106.3,108.1,102.6,108.2,97.6Z"/><path class="b13203ee-9d76-41bc-8b40-54b4a8877e8a" d="M132.9,116V101.7l-.6,1.2c-.8,1.5-1.4,2.2-1.8,2.2s-.9-.5-.9-1.3a7,7,0,0,1,1.2-2.5,36.6,36.6,0,0,0,2.4-5.5,38.3,38.3,0,0,0,1.7-5.2c.2-1.1.7-1.6,1.5-1.6s1.2.3,1.2,1-.7,3-2.2,6.6V116c0,1-.4,1.4-1.3,1.4S132.9,117,132.9,116Zm4.9-2.6a1.8,1.8,0,0,1-.5-1.7v-6.8a3,3,0,0,1,.5-1.8,2.2,2.2,0,0,1,1.7-.4h1V97.3h-2.6c-.8,0-1.3-.4-1.3-1.2s.5-1.1,1.3-1.1h2.6V90.3c0-.9.4-1.3,1.2-1.3s1.1.4,1.1,1.3V95h2.4c.9,0,1.3.3,1.3,1.1s-.4,1.2-1.3,1.2h-2.4v5.4h1.1c.8,0,1.4.1,1.7.5a2.2,2.2,0,0,1,.5,1.7v6.8a3,3,0,0,1-.5,1.8,2.4,2.4,0,0,1-1.8.5h-4.2A2.4,2.4,0,0,1,137.8,113.4Zm6.1-2.6v-4.9c0-.6-.4-.9-1-1h-2.4c-.6,0-.9.3-.9,1v4.9a.8.8,0,0,0,.9.9h2.4A.9.9,0,0,0,143.9,110.8Zm.1,5.2c0-.6.4-1,1.2-1.4a13.9,13.9,0,0,0,5.1-3.9c-1.2-2.4-2-6-2.3-10.6-.9,1.6-1.5,2.5-2.1,2.5s-.9-.4-.9-1.3a1.9,1.9,0,0,1,.5-1.2,33.6,33.6,0,0,0,3.5-9.8c.2-.9.6-1.3,1.3-1.3s1.2.3,1.2,1.1a45.8,45.8,0,0,1-1.4,5h6.8c.7,0,1.1.4,1.1,1.2s-.4,1.2-1.1,1.2H156v2c-.3,4.9-1.3,8.7-2.9,11.3a18.1,18.1,0,0,0,4.3,3.6,1.5,1.5,0,0,1,.7,1.3c0,1-.4,1.4-1.3,1.4s-1.9-.8-3.6-2.5a14.9,14.9,0,0,1-1.5-1.9,22.4,22.4,0,0,1-3.6,3.1,5.8,5.8,0,0,1-2.8,1.5C144.4,117.3,144,116.8,144,116Zm9.8-18.5h-3.9c.2,5,.8,8.7,1.8,11C152.9,106.4,153.6,102.8,153.8,97.5Z"/><path class="b13203ee-9d76-41bc-8b40-54b4a8877e8a" d="M182.3,93.7V93h-6.7c-.8,0-1.2-.4-1.2-1.1s.4-1,1.2-1h6.7v-.8a1.2,1.2,0,0,1,2.4,0v.8H192v-.8a1.2,1.2,0,0,1,2.4,0v.8h6.9c.8,0,1.2.3,1.2,1s-.4,1.1-1.2,1.1h-6.9v.7c0,.7-.4,1-1.2,1s-1.2-.3-1.2-1V93h-7.3v.7c0,.7-.4,1-1.2,1S182.3,94.4,182.3,93.7Zm-6.2,22.5c0-.7.5-1.1,1.6-1.1a39.6,39.6,0,0,0,8.6-1.4l-1.7-1.1-1.5-1c-.3-.3-.4-.5-.4-.6s.4-1.1,1.3-1.1,2.3,1,5,2.8a26.9,26.9,0,0,0,3.8-2c1.3-.8,1.9-1.3,1.9-1.5s-.1-.2-.3-.2H183.3c-2.8,2.1-4.7,3.2-5.6,3.2s-1.1-.4-1.1-1.2.7-1,2.1-1.7a17.5,17.5,0,0,0,5.4-4.1h-5.8a1,1,0,0,0-1.1,1.1v1.5c0,.9-.4,1.3-1.2,1.3s-1.2-.4-1.2-1.3V106c-.1-2.1.8-3,2.9-2.9h21.5a3.2,3.2,0,0,1,2.3.7,2.5,2.5,0,0,1,.6,2.2v1.7q0,1.5-1.2,1.5c-.8,0-1.2-.5-1.2-1.3v-1.6a1,1,0,0,0-1.1-1.1H187.2l-1.6,1.7h10.9c1.3,0,1.9.4,1.9,1.2s-1.5,2.4-4.6,4.5a28.5,28.5,0,0,1-11.4,4.1l-4.3.6h-.8C176.5,117.4,176.1,117.1,176.1,116.2Zm1-15.2a1.9,1.9,0,0,1-.5-1.8V97.6a2.7,2.7,0,0,1,.6-1.9,2.4,2.4,0,0,1,1.8-.5h18.9a2.5,2.5,0,0,1,1.9.6,2.1,2.1,0,0,1,.5,1.8v1.6a3.1,3.1,0,0,1-.5,1.9,2.2,2.2,0,0,1-1.9.5H179A2.5,2.5,0,0,1,177.1,101Zm6.7-4h-4.1c-.6,0-.8.3-.9.9V99c0,.5.3.8.9.8h4.1Zm7,2.8V97h-4.9v2.8Zm7.3-.8V97.9a.8.8,0,0,0-.9-.9h-4.3v2.8h4.3C197.8,99.8,198.1,99.6,198.1,99Z"/><path class="b13203ee-9d76-41bc-8b40-54b4a8877e8a" d="M243.9,115.9c0-.9.5-1.4,1.5-1.4h1.5c.8,0,1.1-.4,1.2-1.2v-5.5c-1.5.4-3.4.9-5.6,1.3h-.4a1.1,1.1,0,0,1-.8-.3,1.7,1.7,0,0,1-.3-1,1,1,0,0,1,.4-.9,2.3,2.3,0,0,1,1.2-.5l5.5-1V100h-5.5q-1.5,0-1.5-1.2t1.5-1.2h5.5V93.2l-1.8.3-2.9.3c-.9.1-1.3-.3-1.3-1.2s.1-.8.5-.9a4.6,4.6,0,0,1,2-.4,32.6,32.6,0,0,0,8-1.5l1.2-.3c.9,0,1.3.4,1.3,1.3a.8.8,0,0,1-.2.5.7.7,0,0,1-.5.4,3.8,3.8,0,0,1-1.1.5l-2.7.6v4.8h6.8c-.2-3-.3-5.3-.3-7s.4-1.6,1.3-1.6a1.2,1.2,0,0,1,1,.4,2.3,2.3,0,0,1,.3,1.3c0,2,.1,4.3.2,6.9h7.7q1.5,0,1.5,1.2t-1.5,1.2h-7.5a31.2,31.2,0,0,0,1.3,6.5,19.4,19.4,0,0,0,2.3-2.9c.7-1,1.3-1.5,1.7-1.5l1,.2a1.2,1.2,0,0,1,.4.8c0,.9-1.5,2.8-4.4,6a20.3,20.3,0,0,0,1.9,3.5c.6.8,1.1,1.2,1.6,1.2s.8-.9,1.1-2.8a1.9,1.9,0,0,1,.4-.9,1.1,1.1,0,0,1,.8-.3c.8,0,1.2.5,1.2,1.4a9.3,9.3,0,0,1-.9,4,2.7,2.7,0,0,1-2.3,1.8,2.7,2.7,0,0,1-1.4-.4,7.9,7.9,0,0,1-1.5-1.2,20.8,20.8,0,0,1-2.8-4.4l-1.8,1.6a14.1,14.1,0,0,1-2.1,1.6l-2,1.2a1.9,1.9,0,0,1-1,.4c-.8,0-1.2-.4-1.2-1.3s.5-1,1.4-1.5a29.3,29.3,0,0,0,5.7-4.4,30.3,30.3,0,0,1-1.9-8.6h-7v4.8l2.1-.6.6-.2.8-.2h.3a.8.8,0,0,1,.7.4c.2.2.2.5.2.9s-.4,1-1.4,1.2l-3.3.9v7a3.3,3.3,0,0,1-.8,2.4,3.4,3.4,0,0,1-2.5.7h-1.9C244.4,117.2,243.9,116.7,243.9,115.9Zm21-20.4a9.2,9.2,0,0,1-1.3-1.4l-1.2-1.6a1.6,1.6,0,0,1-.3-.8.9.9,0,0,1,.3-.7,1.3,1.3,0,0,1,.8-.3c.5,0,1.3.6,2.2,1.7a5.6,5.6,0,0,1,1.5,2.2c0,.9-.4,1.3-1.3,1.3S265.2,95.8,264.9,95.5Z"/><path class="b13203ee-9d76-41bc-8b40-54b4a8877e8a" d="M286.1,115.9a1.2,1.2,0,0,1,1.3-1.3h1c.6,0,.9-.3,1-1v-6.7l-2.5.7c-.8,0-1.2-.5-1.2-1.3s.3-1.1,1.1-1.3l2.6-.8V97.4h-2.2c-1,0-1.4-.4-1.4-1.3s.4-1.1,1.4-1.1h2.2V90.3c0-.9.4-1.3,1.2-1.3s1.2.4,1.2,1.3V95h1.7c.9,0,1.4.4,1.4,1.2s-.5,1.2-1.4,1.2h-1.7v6.1l1.4-.4a1,1,0,0,1,1.1,1.1,1.3,1.3,0,0,1-1,1.3l-1.5.6v8.3a2.4,2.4,0,0,1-2.8,2.8h-1.6A1.2,1.2,0,0,1,286.1,115.9Zm6.8-.1c0-.5.3-.9,1-1.3a10.7,10.7,0,0,0,3.3-2.9,37.6,37.6,0,0,1-1.8-3.5,11.5,11.5,0,0,1-.7-3.5c0-.7.4-1,1.1-1s1,.5,1.1,1.4a10.6,10.6,0,0,0,1.6,4.5,17.5,17.5,0,0,0,1.1-6.4.7.7,0,0,0-.8-.8h-2.1c-1.1,0-1.7-.5-1.7-1.4a3.8,3.8,0,0,1,.7-1.8,20.6,20.6,0,0,0,2.4-4.7l.2-.4v-.4h0c0-.2-.2-.3-.5-.3h-2.7A1.1,1.1,0,0,1,294,92c0-.7.4-1.1,1.2-1.1h4.4c1.2,0,1.7.4,1.7,1.2a14.9,14.9,0,0,1-1.7,4.1l-1.2,2.5-.2.4a3.9,3.9,0,0,0-.2.6c0,.2.1.3.2.3h1.6a1.8,1.8,0,0,1,2,2,21.9,21.9,0,0,1-1.8,9.2,8.4,8.4,0,0,0,4.1,2.3,39.6,39.6,0,0,0,7.2.5h1.3a1,1,0,0,1,1.1.3,1.1,1.1,0,0,1,.4,1c0,.9-.5,1.3-1.5,1.3a47.5,47.5,0,0,1-8.7-.6,10.9,10.9,0,0,1-5.1-2.9c-2,2.6-3.6,3.8-4.8,3.8S292.9,116.6,292.9,115.8Zm10-4.7a1.2,1.2,0,0,1-.3-.9q0-.7.3-.9a1.5,1.5,0,0,1,1-.3h2.8v-7.1h-3c-.9,0-1.3-.4-1.3-1.1s.4-1.3,1.3-1.3h3V94l-3.5.5a1.1,1.1,0,0,1-1.2-1.2,1.2,1.2,0,0,1,.5-1l2.7-.5c2.9-.6,4.6-.9,5-1.1l1.6-.4a1.1,1.1,0,0,1,1.2,1.2c0,.7-.5,1.2-1.5,1.4l-2.4.6v6h3.5c.9,0,1.3.4,1.3,1.3s-.4,1.1-1.3,1.1h-3.5V109h3a1.1,1.1,0,0,1,1.2,1.2c0,.7-.4,1.1-1.2,1.1h-8.2A1.5,1.5,0,0,1,302.9,111.1Z"/><path class="b13203ee-9d76-41bc-8b40-54b4a8877e8a" d="M334.4,115.9V101.2a12.1,12.1,0,0,1-1.9,2.8c-.5.6-.9,1-1.2,1a1,1,0,0,1-.8-.3,1.2,1.2,0,0,1-.3-.9,4.5,4.5,0,0,1,1-2.1,55.5,55.5,0,0,0,5.2-11.2c.3-1,.8-1.5,1.4-1.5s1.5.4,1.5,1.2a18.7,18.7,0,0,1-.7,2.3l-1.7,3.6v19.8c0,1-.5,1.5-1.3,1.5S334.4,116.9,334.4,115.9Zm9.5.3a1.2,1.2,0,0,1,1.3-1.3h1.4c.9,0,1.3-.4,1.3-1.3V96.2h-3.7a18.9,18.9,0,0,1-1.1,2.5l-1.1,1.9c-.5.7-1,1.1-1.4,1.1s-1.3-.4-1.3-1.2a3.6,3.6,0,0,1,.5-1.3,37.1,37.1,0,0,0,3.8-8.7q.4-1.5,1.5-1.5c.8,0,1.3.4,1.3,1.1a7.9,7.9,0,0,1-.4,1.2c-.2.5-.5,1.4-1,2.6h11.2a2.5,2.5,0,0,1,1.6.4,1.3,1.3,0,0,1,.6,1.1c0,.1,0,.3-.1.3a9.9,9.9,0,0,1-1.2,3.2A19,19,0,0,1,356,101a1.4,1.4,0,0,1-1,.6,1.3,1.3,0,0,1-.8-.3,1.2,1.2,0,0,1-.4-.8.8.8,0,0,1,.2-.4c.5-1,.9-2.1,1.4-3.2s.1-.2.1-.3-.2-.4-.5-.4h-4.5v17.9a3.3,3.3,0,0,1-.9,2.6,3.6,3.6,0,0,1-2.5.7h-1.7Q343.9,117.4,343.9,116.2Zm-4.2-3.1a1.5,1.5,0,0,1-.2-.8,1.3,1.3,0,0,1,.1-.6l.5-.9a29.4,29.4,0,0,0,2.9-7c.2-.8.6-1.1,1.2-1.1s1.1.3,1.1,1a8.9,8.9,0,0,1-.3,1.9c-.3.9-.7,1.9-1.2,3.1a16.5,16.5,0,0,1-2.2,4.3,1.8,1.8,0,0,1-1.1.4A1.1,1.1,0,0,1,339.7,113.1Zm16.1.1a6.4,6.4,0,0,1-.6-1.4l-2.1-6.9a3.5,3.5,0,0,1-.3-1.3l.4-.6.8-.2a1,1,0,0,1,1,.6,11.3,11.3,0,0,1,.7,1.5c.3.8.6,1.6.9,2.6s.9,2.7,1.1,3.4a5,5,0,0,1,.3,1.4,1.1,1.1,0,0,1-1.3,1.3A1.2,1.2,0,0,1,355.8,113.2Z"/></svg>