<svg id="b2188989-2ebe-4175-baeb-d218217edf59" data-name="栝鍣 1" xmlns="http://www.w3.org/2000/svg" width="431.6" height="287.9" viewBox="0 0 431.6 287.9"><defs><style>.e2030fee-78f9-4a61-a855-13075c7d217b{fill:#9a3030;}.a8df05be-d5cd-4623-b58f-757edc7ea3f8{fill:#a93233;}.e7445f25-a1cc-4027-9970-f339897e4e22{fill:#922728;}.e7445f25-a1cc-4027-9970-f339897e4e22,.ec2f39c2-6791-4f40-ba18-30f174416526,.fe9f6b09-ba76-499d-aa9c-955d4b522e5b{fill-rule:evenodd;}.ec2f39c2-6791-4f40-ba18-30f174416526{fill:#bf4343;}.fe9f6b09-ba76-499d-aa9c-955d4b522e5b{fill:#721f24;}</style></defs><rect class="e2030fee-78f9-4a61-a855-13075c7d217b" x="11.3" y="11.2" width="409.1" height="265.56"/><rect class="a8df05be-d5cd-4623-b58f-757edc7ea3f8" x="33.6" y="31.4" width="364.5" height="232.64"/><polygon class="e7445f25-a1cc-4027-9970-f339897e4e22" points="398.1 264.1 33.6 264.1 210.5 147.7 398.1 264.1"/><polygon class="ec2f39c2-6791-4f40-ba18-30f174416526" points="398.1 31.4 33.6 31.4 210.5 147.7 398.1 31.4"/><path class="ec2f39c2-6791-4f40-ba18-30f174416526" d="M11.3,11.2h409V276.7H11.3Zm420.3,0V0H0V287.9H431.6V11.2Z"/><polygon class="fe9f6b09-ba76-499d-aa9c-955d4b522e5b" points="22.5 22.4 409.1 22.4 420.3 11.2 11.3 11.2 22.5 22.4"/><path class="e7445f25-a1cc-4027-9970-f339897e4e22" d="M409.1,276.5V22.4l11.2-11.2V276.7Zm-386.6,0V22.4L11.3,11.2V276.7Z"/></svg>